<mxfile host="app.diagrams.net" modified="2021-01-05T21:03:46.753Z" agent="5.0 (X11; Linux x86_64) AppleWebKit/537.36 (KHTML, like Gecko) Chrome/89.0.4343.0 Safari/537.36 OPR/75.0.3925.0 (Edition developer)" etag="O803aHqbZ3HqRO4b4qpe" version="14.1.8" type="github">
  <diagram id="FUZhbVknojldcqYKG9fJ" name="Page-1">
    <mxGraphModel dx="2889" dy="311" grid="0" gridSize="10" guides="1" tooltips="1" connect="1" arrows="1" fold="1" page="1" pageScale="1" pageWidth="2336" pageHeight="1654" background="none" math="0" shadow="0">
      <root>
        <mxCell id="0" />
        <mxCell id="1" parent="0" />
        <mxCell id="ToduFV8g3K8M5US-xybr-17" value="" style="endArrow=classic;html=1;fontColor=#0000CC;strokeColor=#0000CC;entryX=0.5;entryY=0;entryDx=0;entryDy=0;" parent="1" target="UKt0rCFPghXX4FOB7-Do-28" edge="1">
          <mxGeometry width="50" height="50" relative="1" as="geometry">
            <mxPoint x="-1108" y="1360" as="sourcePoint" />
            <mxPoint x="-1834" y="112" as="targetPoint" />
            <Array as="points">
              <mxPoint x="-1108" y="86" />
              <mxPoint x="-1442.04" y="86" />
              <mxPoint x="-1601.04" y="86" />
              <mxPoint x="-1894" y="86" />
            </Array>
          </mxGeometry>
        </mxCell>
        <mxCell id="ToduFV8g3K8M5US-xybr-18" value="ID_EXE_RtReg" style="edgeLabel;html=1;align=center;verticalAlign=middle;resizable=0;points=[];fontColor=#0000CC;fontSize=11;" parent="ToduFV8g3K8M5US-xybr-17" vertex="1" connectable="0">
          <mxGeometry x="0.8425" y="1" relative="1" as="geometry">
            <mxPoint x="-61.29" as="offset" />
          </mxGeometry>
        </mxCell>
        <mxCell id="ToduFV8g3K8M5US-xybr-5" value="" style="endArrow=classic;html=1;fontColor=#0000CC;strokeColor=#0000CC;entryX=0.892;entryY=0.148;entryDx=0;entryDy=0;entryPerimeter=0;" parent="1" target="UKt0rCFPghXX4FOB7-Do-28" edge="1">
          <mxGeometry width="50" height="50" relative="1" as="geometry">
            <mxPoint x="-1126.95" y="236" as="sourcePoint" />
            <mxPoint x="-1274.0019389014199" y="-146.15602036619342" as="targetPoint" />
            <Array as="points">
              <mxPoint x="-1127" y="111" />
              <mxPoint x="-1455" y="111" />
              <mxPoint x="-1614" y="111" />
              <mxPoint x="-1614" y="137" />
            </Array>
          </mxGeometry>
        </mxCell>
        <mxCell id="ToduFV8g3K8M5US-xybr-6" value="ID_EXE_MemRead" style="edgeLabel;html=1;align=center;verticalAlign=middle;resizable=0;points=[];fontColor=#0000CC;fontSize=11;" parent="ToduFV8g3K8M5US-xybr-5" vertex="1" connectable="0">
          <mxGeometry x="0.8425" y="1" relative="1" as="geometry">
            <mxPoint x="-2.67" as="offset" />
          </mxGeometry>
        </mxCell>
        <mxCell id="JEvkDJspSOMSKIL867WB-57" value="MEM_WB_RegWrite" style="endArrow=classic;html=1;fontSize=9;entryX=0.5;entryY=1;entryDx=0;entryDy=0;strokeColor=#000066;fontColor=#000066;" parent="1" target="UKt0rCFPghXX4FOB7-Do-27" edge="1">
          <mxGeometry x="0.8975" width="50" height="50" relative="1" as="geometry">
            <mxPoint x="-194" y="253" as="sourcePoint" />
            <mxPoint x="-484.0019389014198" y="1513.1560203661932" as="targetPoint" />
            <Array as="points">
              <mxPoint x="-194" y="979" />
              <mxPoint x="-194" y="1522" />
              <mxPoint x="-908" y="1522" />
            </Array>
            <mxPoint as="offset" />
          </mxGeometry>
        </mxCell>
        <mxCell id="CtNVOPYaEB--DCEwSdlD-39" value="EXE_MEM_RegWrite" style="endArrow=none;html=1;fontSize=8;fontColor=#3399FF;strokeColor=#3399FF;exitX=1;exitY=0.5;exitDx=0;exitDy=0;entryX=-0.03;entryY=0.374;entryDx=0;entryDy=0;entryPerimeter=0;spacingBottom=8;" parent="1" edge="1">
          <mxGeometry x="-0.6276" y="-3" width="50" height="50" relative="1" as="geometry">
            <mxPoint x="-579.0000000000002" y="211" as="sourcePoint" />
            <mxPoint x="-261" y="250.43999999999994" as="targetPoint" />
            <Array as="points">
              <mxPoint x="-426.01" y="215.5" />
              <mxPoint x="-426.01" y="241.5" />
            </Array>
            <mxPoint as="offset" />
          </mxGeometry>
        </mxCell>
        <mxCell id="JEvkDJspSOMSKIL867WB-51" value="EXE_MEM_RegWriite" style="endArrow=classic;html=1;fontSize=9;entryX=0.957;entryY=0.62;entryDx=0;entryDy=0;strokeColor=#000066;fontColor=#000066;entryPerimeter=0;" parent="1" target="UKt0rCFPghXX4FOB7-Do-27" edge="1">
          <mxGeometry x="0.8975" width="50" height="50" relative="1" as="geometry">
            <mxPoint x="-555" y="212" as="sourcePoint" />
            <mxPoint x="-1265" y="869" as="targetPoint" />
            <Array as="points">
              <mxPoint x="-555" y="936" />
              <mxPoint x="-555" y="1469" />
            </Array>
            <mxPoint as="offset" />
          </mxGeometry>
        </mxCell>
        <mxCell id="CtNVOPYaEB--DCEwSdlD-22" value="&lt;font style=&quot;font-size: 4px;&quot;&gt;EXE_MEM_&lt;br style=&quot;font-size: 4px;&quot;&gt;BranchnotEqual&lt;/font&gt;" style="endArrow=none;html=1;strokeColor=#3399FF;fontColor=#3399FF;fontSize=4;spacing=0;spacingLeft=3;spacingBottom=3;entryX=0;entryY=0.25;entryDx=0;entryDy=0;entryPerimeter=0;horizontal=1;" parent="1" target="JEvkDJspSOMSKIL867WB-67" edge="1">
          <mxGeometry x="0.5686" width="50" height="50" relative="1" as="geometry">
            <mxPoint x="-578.99" y="294" as="sourcePoint" />
            <mxPoint x="-495" y="313" as="targetPoint" />
            <mxPoint as="offset" />
            <Array as="points">
              <mxPoint x="-560" y="294" />
              <mxPoint x="-560" y="334" />
            </Array>
          </mxGeometry>
        </mxCell>
        <mxCell id="CtNVOPYaEB--DCEwSdlD-17" value="RegDst" style="endArrow=none;html=1;exitX=0.868;exitY=0.839;exitDx=0;exitDy=0;strokeColor=#3399FF;fontColor=#3399FF;fontSize=9;spacing=0;spacingLeft=5;spacingBottom=8;entryX=0;entryY=0.25;entryDx=0;entryDy=0;exitPerimeter=0;" parent="1" source="UKt0rCFPghXX4FOB7-Do-11" target="VB7SxKn7EFe_iuw59Z2b-44" edge="1">
          <mxGeometry x="-0.7829" y="-4" width="50" height="50" relative="1" as="geometry">
            <mxPoint x="-1484.9900000000002" y="265.998" as="sourcePoint" />
            <mxPoint x="-1277.99" y="276" as="targetPoint" />
            <mxPoint as="offset" />
          </mxGeometry>
        </mxCell>
        <mxCell id="JEvkDJspSOMSKIL867WB-50" value="EXE_MEM_DstReg" style="endArrow=classic;html=1;fontSize=9;entryX=1;entryY=0.25;entryDx=0;entryDy=0;strokeColor=#000066;fontColor=#000066;horizontal=1;" parent="1" target="UKt0rCFPghXX4FOB7-Do-27" edge="1">
          <mxGeometry x="0.719" width="50" height="50" relative="1" as="geometry">
            <mxPoint x="-512" y="1380" as="sourcePoint" />
            <mxPoint x="-511" y="1216" as="targetPoint" />
            <Array as="points">
              <mxPoint x="-512" y="1442" />
            </Array>
            <mxPoint as="offset" />
          </mxGeometry>
        </mxCell>
        <mxCell id="JEvkDJspSOMSKIL867WB-53" value="MEM_WB_DstReg" style="endArrow=classic;html=1;strokeColor=#000066;fontSize=9;fontColor=#000066;entryX=0.883;entryY=0.89;entryDx=0;entryDy=0;entryPerimeter=0;" parent="1" target="UKt0rCFPghXX4FOB7-Do-27" edge="1">
          <mxGeometry x="0.861" width="50" height="50" relative="1" as="geometry">
            <mxPoint x="-198" y="1382" as="sourcePoint" />
            <mxPoint x="-634" y="1409" as="targetPoint" />
            <Array as="points">
              <mxPoint x="-198" y="1490" />
            </Array>
            <mxPoint as="offset" />
          </mxGeometry>
        </mxCell>
        <mxCell id="JEvkDJspSOMSKIL867WB-48" value="" style="endArrow=classic;html=1;strokeColor=#000066;fontSize=9;fontColor=#000066;entryX=0;entryY=0.75;entryDx=0;entryDy=0;" parent="1" target="UKt0rCFPghXX4FOB7-Do-27" edge="1">
          <mxGeometry width="50" height="50" relative="1" as="geometry">
            <mxPoint x="-1216" y="1359" as="sourcePoint" />
            <mxPoint x="-1211" y="1476" as="targetPoint" />
            <Array as="points">
              <mxPoint x="-1216" y="1476" />
            </Array>
          </mxGeometry>
        </mxCell>
        <mxCell id="JEvkDJspSOMSKIL867WB-44" value="forwardOp1" style="endArrow=classic;html=1;fontSize=9;exitX=0.625;exitY=0;exitDx=0;exitDy=0;entryX=0.5;entryY=1;entryDx=0;entryDy=0;strokeColor=#000066;fontColor=#000066;horizontal=1;" parent="1" source="UKt0rCFPghXX4FOB7-Do-27" target="UKt0rCFPghXX4FOB7-Do-16" edge="1">
          <mxGeometry x="0.9473" width="50" height="50" relative="1" as="geometry">
            <mxPoint x="-846.0519389014194" y="1451.6839796338068" as="sourcePoint" />
            <mxPoint x="-873.9999999999995" y="852.0000000000002" as="targetPoint" />
            <Array as="points">
              <mxPoint x="-893" y="1403" />
              <mxPoint x="-854" y="1403" />
              <mxPoint x="-854" y="571" />
              <mxPoint x="-884" y="571" />
            </Array>
            <mxPoint as="offset" />
          </mxGeometry>
        </mxCell>
        <mxCell id="JEvkDJspSOMSKIL867WB-43" value="forwardOp2" style="endArrow=classic;html=1;fontSize=9;exitX=0.375;exitY=0;exitDx=0;exitDy=0;entryX=0.5;entryY=1;entryDx=0;entryDy=0;strokeColor=#000066;fontColor=#000066;horizontal=1;" parent="1" source="UKt0rCFPghXX4FOB7-Do-27" target="UKt0rCFPghXX4FOB7-Do-17" edge="1">
          <mxGeometry x="0.9284" width="50" height="50" relative="1" as="geometry">
            <mxPoint x="-939" y="1277" as="sourcePoint" />
            <mxPoint x="-889" y="1227" as="targetPoint" />
            <Array as="points">
              <mxPoint x="-923" y="1389" />
              <mxPoint x="-884" y="1389" />
              <mxPoint x="-884" y="1130" />
              <mxPoint x="-884" y="902" />
            </Array>
            <mxPoint as="offset" />
          </mxGeometry>
        </mxCell>
        <mxCell id="VB7SxKn7EFe_iuw59Z2b-35" value="JmpandLink" style="endArrow=none;html=1;fontSize=8;strokeColor=#3399FF;fontColor=#3399FF;endFill=0;" parent="1" edge="1">
          <mxGeometry x="-0.5366" width="50" height="50" relative="1" as="geometry">
            <mxPoint x="-1470" y="205" as="sourcePoint" />
            <mxPoint x="-1306" y="205.29" as="targetPoint" />
            <mxPoint as="offset" />
          </mxGeometry>
        </mxCell>
        <mxCell id="JEvkDJspSOMSKIL867WB-29" value="WB_Data" style="edgeStyle=orthogonalEdgeStyle;rounded=0;orthogonalLoop=1;jettySize=auto;html=1;exitX=1;exitY=0.5;exitDx=0;exitDy=0;endArrow=classic;endFill=1;strokeColor=#CCCC00;fontSize=9;fontColor=#CCCC00;entryX=0.012;entryY=0.884;entryDx=0;entryDy=0;entryPerimeter=0;horizontal=1;" parent="1" source="UKt0rCFPghXX4FOB7-Do-29" target="UKt0rCFPghXX4FOB7-Do-9" edge="1">
          <mxGeometry x="-0.9483" relative="1" as="geometry">
            <mxPoint x="-53.999674479166366" y="1385.9999796549482" as="targetPoint" />
            <Array as="points">
              <mxPoint x="-54" y="663" />
              <mxPoint x="-54" y="1586" />
              <mxPoint x="-1658" y="1586" />
              <mxPoint x="-1658" y="706" />
            </Array>
            <mxPoint as="offset" />
          </mxGeometry>
        </mxCell>
        <mxCell id="JEvkDJspSOMSKIL867WB-28" value="MEM_WB_DstReg" style="endArrow=classic;html=1;fontSize=9;exitX=0.992;exitY=0.955;exitDx=0;exitDy=0;exitPerimeter=0;entryX=0.007;entryY=0.7;entryDx=0;entryDy=0;entryPerimeter=0;strokeColor=#CCCC00;fontColor=#CCCC00;rounded=0;" parent="1" source="UKt0rCFPghXX4FOB7-Do-6" target="UKt0rCFPghXX4FOB7-Do-9" edge="1">
          <mxGeometry x="-0.9656" width="50" height="50" relative="1" as="geometry">
            <mxPoint x="-807" y="1130" as="sourcePoint" />
            <mxPoint x="-77" y="1138" as="targetPoint" />
            <Array as="points">
              <mxPoint x="-113" y="1382" />
              <mxPoint x="-113" y="1578" />
              <mxPoint x="-1668" y="1578" />
              <mxPoint x="-1668" y="658" />
            </Array>
            <mxPoint as="offset" />
          </mxGeometry>
        </mxCell>
        <mxCell id="VB7SxKn7EFe_iuw59Z2b-50" value="&lt;font style=&quot;font-size: 12px&quot;&gt;WB&lt;/font&gt;" style="rounded=1;whiteSpace=wrap;html=1;fontSize=8;fontColor=#3399FF;strokeColor=#3399FF;" parent="1" vertex="1">
          <mxGeometry x="-261" y="243.5" width="56" height="60" as="geometry" />
        </mxCell>
        <mxCell id="VB7SxKn7EFe_iuw59Z2b-48" value="&lt;font style=&quot;font-size: 12px&quot;&gt;WB&lt;/font&gt;" style="rounded=1;whiteSpace=wrap;html=1;fontSize=8;fontColor=#3399FF;strokeColor=#3399FF;fontStyle=0" parent="1" vertex="1">
          <mxGeometry x="-634.99" y="196.5" width="56" height="60" as="geometry" />
        </mxCell>
        <mxCell id="VB7SxKn7EFe_iuw59Z2b-49" value="&lt;font style=&quot;font-size: 12px&quot;&gt;Mem&lt;/font&gt;" style="rounded=1;whiteSpace=wrap;html=1;fontSize=8;fontColor=#3399FF;strokeColor=#3399FF;" parent="1" vertex="1">
          <mxGeometry x="-635" y="248" width="56" height="60" as="geometry" />
        </mxCell>
        <mxCell id="VB7SxKn7EFe_iuw59Z2b-46" value="&lt;font style=&quot;font-size: 12px&quot;&gt;WB&lt;/font&gt;" style="rounded=1;whiteSpace=wrap;html=1;fontSize=8;fontColor=#3399FF;strokeColor=#3399FF;" parent="1" vertex="1">
          <mxGeometry x="-1277.99" y="145" width="56" height="60" as="geometry" />
        </mxCell>
        <mxCell id="VB7SxKn7EFe_iuw59Z2b-45" value="&lt;font style=&quot;font-size: 12px&quot;&gt;Mem&lt;/font&gt;" style="rounded=1;whiteSpace=wrap;html=1;fontSize=8;fontColor=#3399FF;strokeColor=#3399FF;" parent="1" vertex="1">
          <mxGeometry x="-1278" y="196.5" width="56" height="75.5" as="geometry" />
        </mxCell>
        <mxCell id="VB7SxKn7EFe_iuw59Z2b-44" value="&lt;font style=&quot;font-size: 12px&quot;&gt;EXE&lt;/font&gt;" style="rounded=1;whiteSpace=wrap;html=1;fontSize=8;fontColor=#3399FF;strokeColor=#3399FF;" parent="1" vertex="1">
          <mxGeometry x="-1278" y="266" width="56" height="42" as="geometry" />
        </mxCell>
        <mxCell id="7TlwpzO_HOsOdfMENnGN-18" value="IF_ID_Rs" style="edgeStyle=elbowEdgeStyle;rounded=0;orthogonalLoop=1;jettySize=auto;elbow=vertical;html=1;endArrow=classic;endFill=1;fontColor=#00C200;exitX=1.004;exitY=0.2;exitDx=0;exitDy=0;exitPerimeter=0;fontSize=9;spacingLeft=16;strokeColor=#00C200;" parent="1" source="i_DloLI33KycDSHxBHz_-1" edge="1">
          <mxGeometry x="0.2437" relative="1" as="geometry">
            <Array as="points">
              <mxPoint x="-1704.11" y="529" />
            </Array>
            <mxPoint x="-1721.998" y="592.424" as="sourcePoint" />
            <mxPoint as="offset" />
            <mxPoint x="-1624" y="529" as="targetPoint" />
          </mxGeometry>
        </mxCell>
        <mxCell id="YYx74QZVLRJWQak4ZVne-2" value="" style="edgeStyle=orthogonalEdgeStyle;rounded=0;orthogonalLoop=1;jettySize=auto;html=1;entryX=0;entryY=0.5;entryDx=0;entryDy=0;strokeColor=#B85450;fontColor=#B85450;" parent="1" source="UKt0rCFPghXX4FOB7-Do-2" target="UKt0rCFPghXX4FOB7-Do-8" edge="1">
          <mxGeometry relative="1" as="geometry">
            <Array as="points">
              <mxPoint x="-2054" y="706" />
              <mxPoint x="-2054" y="706" />
            </Array>
          </mxGeometry>
        </mxCell>
        <mxCell id="YYx74QZVLRJWQak4ZVne-6" value="PCplus4" style="edgeStyle=orthogonalEdgeStyle;rounded=0;orthogonalLoop=1;jettySize=auto;html=1;fontSize=10;strokeColor=#B85450;fontColor=#B85450;" parent="1" source="7TlwpzO_HOsOdfMENnGN-1" edge="1">
          <mxGeometry x="-0.6027" y="1" relative="1" as="geometry">
            <Array as="points">
              <mxPoint x="-1803" y="509" />
            </Array>
            <mxPoint x="-1787" y="509" as="targetPoint" />
            <mxPoint as="offset" />
          </mxGeometry>
        </mxCell>
        <mxCell id="UKt0rCFPghXX4FOB7-Do-2" value="&lt;font style=&quot;font-size: 10px&quot; color=&quot;#b85450&quot;&gt;program&lt;br&gt;_counter&lt;/font&gt;" style="rounded=0;whiteSpace=wrap;html=1;strokeColor=#B85450;" parent="1" vertex="1">
          <mxGeometry x="-2140" y="682.5" width="55" height="36.5" as="geometry" />
        </mxCell>
        <mxCell id="UKt0rCFPghXX4FOB7-Do-4" value="&lt;font style=&quot;font-size: 18px;&quot;&gt;Exe/Mem&lt;/font&gt;" style="rounded=0;whiteSpace=wrap;html=1;horizontal=0;fontSize=18;fontStyle=1" parent="1" vertex="1">
          <mxGeometry x="-634.99" y="303" width="56" height="1130" as="geometry" />
        </mxCell>
        <mxCell id="WTMd-Kf-NOUrpAkrOXLC-6" value="MEM_WB_&lt;br&gt;MemData" style="edgeStyle=orthogonalEdgeStyle;rounded=0;orthogonalLoop=1;jettySize=auto;html=1;exitX=1;exitY=0.336;exitDx=0;exitDy=0;entryX=0;entryY=0.25;entryDx=0;entryDy=0;fontSize=9;exitPerimeter=0;fontColor=#CCCC00;strokeColor=#CCCC00;horizontal=1;" parent="1" source="UKt0rCFPghXX4FOB7-Do-6" target="kzKms_yDveK2XiWAhmSa-20" edge="1">
          <mxGeometry x="-0.1127" relative="1" as="geometry">
            <Array as="points">
              <mxPoint x="-205" y="681" />
            </Array>
            <mxPoint as="offset" />
          </mxGeometry>
        </mxCell>
        <mxCell id="UKt0rCFPghXX4FOB7-Do-6" value="&lt;font style=&quot;font-size: 18px;&quot;&gt;Mem/WB&lt;/font&gt;" style="rounded=0;whiteSpace=wrap;html=1;horizontal=0;fontSize=18;fontStyle=1" parent="1" vertex="1">
          <mxGeometry x="-261" y="303" width="56" height="1130" as="geometry" />
        </mxCell>
        <mxCell id="YYx74QZVLRJWQak4ZVne-4" value="&lt;font style=&quot;font-size: 10px;&quot;&gt;instruction&lt;/font&gt;" style="edgeStyle=orthogonalEdgeStyle;rounded=0;orthogonalLoop=1;jettySize=auto;html=1;fontSize=10;fillColor=#f8cecc;fontColor=#C44F4F;strokeColor=#B85450;" parent="1" source="UKt0rCFPghXX4FOB7-Do-8" edge="1">
          <mxGeometry relative="1" as="geometry">
            <Array as="points">
              <mxPoint x="-1803" y="706" />
              <mxPoint x="-1803" y="706" />
            </Array>
            <mxPoint x="-1787" y="706" as="targetPoint" />
          </mxGeometry>
        </mxCell>
        <mxCell id="UKt0rCFPghXX4FOB7-Do-8" value="&lt;font style=&quot;font-size: 17px&quot;&gt;instruction memory&lt;/font&gt;" style="rounded=0;whiteSpace=wrap;html=1;strokeColor=#B85450;fontColor=#B85450;" parent="1" vertex="1">
          <mxGeometry x="-2006" y="605" width="120" height="202" as="geometry" />
        </mxCell>
        <mxCell id="UKt0rCFPghXX4FOB7-Do-9" value="&lt;font style=&quot;font-size: 16px&quot;&gt;Registers File&lt;/font&gt;" style="rounded=0;whiteSpace=wrap;html=1;fontColor=#00C200;strokeColor=#00C200;" parent="1" vertex="1">
          <mxGeometry x="-1624" y="477" width="170" height="259" as="geometry" />
        </mxCell>
        <mxCell id="UKt0rCFPghXX4FOB7-Do-11" value="&lt;font style=&quot;font-size: 15px&quot;&gt;control unit&lt;/font&gt;" style="ellipse;whiteSpace=wrap;html=1;fontColor=#3399FF;strokeColor=#3399FF;" parent="1" vertex="1">
          <mxGeometry x="-1590" y="123" width="120" height="176" as="geometry" />
        </mxCell>
        <mxCell id="VB7SxKn7EFe_iuw59Z2b-4" value="&lt;font style=&quot;font-size: 8px&quot; color=&quot;#00c200&quot;&gt;SignedImmediate&lt;/font&gt;" style="edgeStyle=orthogonalEdgeStyle;rounded=0;orthogonalLoop=1;jettySize=auto;html=1;exitX=1;exitY=0.5;exitDx=0;exitDy=0;strokeColor=#00C200;entryX=0;entryY=0.75;entryDx=0;entryDy=0;" parent="1" source="UKt0rCFPghXX4FOB7-Do-12" target="VB7SxKn7EFe_iuw59Z2b-13" edge="1">
          <mxGeometry x="-0.2727" relative="1" as="geometry">
            <mxPoint x="-1283.3958189174102" y="891.5714285714289" as="targetPoint" />
            <mxPoint as="offset" />
          </mxGeometry>
        </mxCell>
        <mxCell id="UKt0rCFPghXX4FOB7-Do-12" value="&lt;font style=&quot;font-size: 15px&quot;&gt;sign &lt;br&gt;extension&lt;/font&gt;" style="ellipse;whiteSpace=wrap;html=1;aspect=fixed;fontColor=#00C200;strokeColor=#00C200;" parent="1" vertex="1">
          <mxGeometry x="-1606.61" y="852" width="80" height="80" as="geometry" />
        </mxCell>
        <mxCell id="VB7SxKn7EFe_iuw59Z2b-3" value="&lt;font color=&quot;#00c200&quot; style=&quot;font-size: 7px&quot;&gt;UnsignedImmediate&lt;/font&gt;" style="edgeStyle=orthogonalEdgeStyle;rounded=0;orthogonalLoop=1;jettySize=auto;html=1;exitX=1;exitY=0.5;exitDx=0;exitDy=0;strokeColor=#00C200;entryX=0;entryY=0.25;entryDx=0;entryDy=0;" parent="1" source="UKt0rCFPghXX4FOB7-Do-13" target="VB7SxKn7EFe_iuw59Z2b-13" edge="1">
          <mxGeometry x="-0.261" relative="1" as="geometry">
            <mxPoint x="-1285.681498325892" y="800.1428571428573" as="targetPoint" />
            <mxPoint as="offset" />
          </mxGeometry>
        </mxCell>
        <mxCell id="UKt0rCFPghXX4FOB7-Do-13" value="&lt;font style=&quot;font-size: 15px&quot;&gt;zero&amp;nbsp;&lt;br&gt;extension&lt;/font&gt;" style="ellipse;whiteSpace=wrap;html=1;aspect=fixed;fontColor=#00C200;strokeColor=#00C200;" parent="1" vertex="1">
          <mxGeometry x="-1606.61" y="762" width="80" height="80" as="geometry" />
        </mxCell>
        <mxCell id="JEvkDJspSOMSKIL867WB-10" value="Opertaion" style="edgeStyle=orthogonalEdgeStyle;rounded=0;orthogonalLoop=1;jettySize=auto;html=1;exitX=1;exitY=0.5;exitDx=0;exitDy=0;exitPerimeter=0;entryX=1;entryY=0.25;entryDx=0;entryDy=0;endArrow=classic;endFill=1;strokeColor=#9933FF;fontSize=9;fontColor=#9933FF;" parent="1" source="UKt0rCFPghXX4FOB7-Do-15" target="UKt0rCFPghXX4FOB7-Do-26" edge="1">
          <mxGeometry x="-0.5037" relative="1" as="geometry">
            <Array as="points">
              <mxPoint x="-745" y="861" />
            </Array>
            <mxPoint as="offset" />
          </mxGeometry>
        </mxCell>
        <mxCell id="UKt0rCFPghXX4FOB7-Do-15" value="&lt;font style=&quot;font-size: 15px&quot;&gt;ALU&lt;br&gt;control&lt;/font&gt;" style="strokeWidth=2;html=1;shape=mxgraph.flowchart.start_2;whiteSpace=wrap;strokeColor=#9933FF;fontColor=#9933FF;" parent="1" vertex="1">
          <mxGeometry x="-977" y="824" width="83" height="74" as="geometry" />
        </mxCell>
        <mxCell id="JEvkDJspSOMSKIL867WB-12" style="edgeStyle=orthogonalEdgeStyle;rounded=0;orthogonalLoop=1;jettySize=auto;html=1;exitX=1;exitY=0.5;exitDx=0;exitDy=0;entryX=0.25;entryY=1;entryDx=0;entryDy=0;endArrow=classic;endFill=1;fontSize=9;fontColor=#9933FF;strokeColor=#9933FF;" parent="1" source="UKt0rCFPghXX4FOB7-Do-16" target="UKt0rCFPghXX4FOB7-Do-26" edge="1">
          <mxGeometry relative="1" as="geometry" />
        </mxCell>
        <mxCell id="JEvkDJspSOMSKIL867WB-13" style="edgeStyle=orthogonalEdgeStyle;rounded=0;orthogonalLoop=1;jettySize=auto;html=1;exitX=1;exitY=0.5;exitDx=0;exitDy=0;entryX=0.75;entryY=1;entryDx=0;entryDy=0;endArrow=classic;endFill=1;strokeColor=#9933FF;fontSize=9;fontColor=#9933FF;" parent="1" source="UKt0rCFPghXX4FOB7-Do-17" target="UKt0rCFPghXX4FOB7-Do-26" edge="1">
          <mxGeometry relative="1" as="geometry" />
        </mxCell>
        <mxCell id="VB7SxKn7EFe_iuw59Z2b-1" value="&lt;font style=&quot;font-size: 9px&quot; color=&quot;#b85450&quot;&gt;PCSrc&lt;/font&gt;" style="edgeStyle=orthogonalEdgeStyle;rounded=0;orthogonalLoop=1;jettySize=auto;html=1;exitX=1;exitY=0.5;exitDx=0;exitDy=0;entryX=0;entryY=0.5;entryDx=0;entryDy=0;strokeColor=#B85450;" parent="1" source="UKt0rCFPghXX4FOB7-Do-18" target="UKt0rCFPghXX4FOB7-Do-2" edge="1">
          <mxGeometry relative="1" as="geometry" />
        </mxCell>
        <mxCell id="UKt0rCFPghXX4FOB7-Do-18" value="&lt;font color=&quot;#b85450&quot;&gt;PC MUX&lt;/font&gt;" style="rounded=1;whiteSpace=wrap;html=1;arcSize=39;strokeColor=#B85450;" parent="1" vertex="1">
          <mxGeometry x="-2228" y="648.75" width="38" height="109" as="geometry" />
        </mxCell>
        <mxCell id="JEvkDJspSOMSKIL867WB-19" value="&lt;font style=&quot;font-size: 9px&quot;&gt;ALUOut_EXEC&lt;/font&gt;" style="edgeStyle=orthogonalEdgeStyle;rounded=0;orthogonalLoop=1;jettySize=auto;html=1;exitX=0.5;exitY=0;exitDx=0;exitDy=0;endArrow=classic;endFill=1;strokeColor=#9933FF;fontSize=10;fontColor=#9933FF;entryX=0.015;entryY=0.228;entryDx=0;entryDy=0;entryPerimeter=0;" parent="1" source="UKt0rCFPghXX4FOB7-Do-26" target="UKt0rCFPghXX4FOB7-Do-4" edge="1">
          <mxGeometry relative="1" as="geometry">
            <mxPoint x="-636.4000244140625" y="700" as="targetPoint" />
          </mxGeometry>
        </mxCell>
        <mxCell id="UKt0rCFPghXX4FOB7-Do-27" value="&lt;font style=&quot;font-size: 15px&quot;&gt;Forwarding&lt;br&gt;Unit&lt;br&gt;&lt;/font&gt;" style="shape=hexagon;perimeter=hexagonPerimeter2;whiteSpace=wrap;html=1;fixedSize=1;rounded=1;sketch=0;arcSize=0;size=18.5999755859375;strokeColor=#000066;fontColor=#000066;" parent="1" vertex="1">
          <mxGeometry x="-968" y="1419" width="120" height="80" as="geometry" />
        </mxCell>
        <mxCell id="UKt0rCFPghXX4FOB7-Do-28" value="&lt;font style=&quot;font-size: 14px&quot;&gt;Hazard&lt;br&gt;&amp;nbsp; Detection&lt;/font&gt;" style="shape=hexagon;perimeter=hexagonPerimeter2;whiteSpace=wrap;html=1;fixedSize=1;rounded=1;sketch=0;arcSize=0;size=18.5999755859375;strokeColor=#0000CC;fontColor=#0000CC;" parent="1" vertex="1">
          <mxGeometry x="-1954" y="125" width="120" height="80" as="geometry" />
        </mxCell>
        <mxCell id="UKt0rCFPghXX4FOB7-Do-29" value="WB_&lt;br&gt;MUX" style="rounded=1;whiteSpace=wrap;html=1;arcSize=39;fontColor=#CCCC00;strokeColor=#CCCC00;" parent="1" vertex="1">
          <mxGeometry x="-124" y="624" width="38" height="77" as="geometry" />
        </mxCell>
        <mxCell id="UKt0rCFPghXX4FOB7-Do-31" value="&lt;font style=&quot;font-size: 17px&quot;&gt;Data&amp;nbsp;&lt;br&gt;&amp;nbsp;memory&lt;/font&gt;" style="rounded=0;whiteSpace=wrap;html=1;strokeColor=#FF9933;fontColor=#FF9933;" parent="1" vertex="1">
          <mxGeometry x="-463" y="447.5" width="120" height="202" as="geometry" />
        </mxCell>
        <mxCell id="HnmR9eoODCfxTX8oJJkG-1" value="ReadRegister1" style="text;html=1;fillColor=none;align=center;verticalAlign=middle;whiteSpace=wrap;rounded=0;fontSize=10;fontColor=#00C200;strokeColor=#FFFFFF;" parent="1" vertex="1">
          <mxGeometry x="-1607" y="518" width="40" height="20" as="geometry" />
        </mxCell>
        <mxCell id="HnmR9eoODCfxTX8oJJkG-2" value="ReadRegister2" style="text;html=1;fillColor=none;align=center;verticalAlign=middle;whiteSpace=wrap;rounded=0;fontSize=10;fontColor=#00C200;strokeColor=#FFFFFF;" parent="1" vertex="1">
          <mxGeometry x="-1607" y="566" width="40" height="20" as="geometry" />
        </mxCell>
        <mxCell id="HnmR9eoODCfxTX8oJJkG-3" value="RegWrite" style="text;html=1;fillColor=none;align=center;verticalAlign=middle;whiteSpace=wrap;rounded=0;fontSize=10;fontColor=#00C200;strokeColor=#FFFFFF;" parent="1" vertex="1">
          <mxGeometry x="-1559" y="482" width="40" height="20" as="geometry" />
        </mxCell>
        <mxCell id="HnmR9eoODCfxTX8oJJkG-4" value="WriteRegister" style="text;html=1;fillColor=none;align=center;verticalAlign=middle;whiteSpace=wrap;rounded=0;fontSize=10;fontColor=#00C200;strokeColor=#FFFFFF;" parent="1" vertex="1">
          <mxGeometry x="-1607" y="649" width="40" height="20" as="geometry" />
        </mxCell>
        <mxCell id="HnmR9eoODCfxTX8oJJkG-5" value="WriteData" style="text;html=1;fillColor=none;align=center;verticalAlign=middle;whiteSpace=wrap;rounded=0;fontSize=10;fontColor=#00C200;strokeColor=#FFFFFF;" parent="1" vertex="1">
          <mxGeometry x="-1616" y="698.5" width="40" height="20" as="geometry" />
        </mxCell>
        <mxCell id="HnmR9eoODCfxTX8oJJkG-6" value="ReadData1" style="text;html=1;fillColor=none;align=center;verticalAlign=middle;whiteSpace=wrap;rounded=0;fontSize=10;fontColor=#00C200;strokeColor=#FFFFFF;" parent="1" vertex="1">
          <mxGeometry x="-1510" y="541" width="40" height="20" as="geometry" />
        </mxCell>
        <mxCell id="HnmR9eoODCfxTX8oJJkG-7" value="ReadData2" style="text;html=1;fillColor=none;align=center;verticalAlign=middle;whiteSpace=wrap;rounded=0;fontSize=10;fontColor=#00C200;strokeColor=#FFFFFF;" parent="1" vertex="1">
          <mxGeometry x="-1510" y="635" width="40" height="20" as="geometry" />
        </mxCell>
        <mxCell id="7TlwpzO_HOsOdfMENnGN-1" value="&lt;font color=&quot;#b85450&quot;&gt;ADD&lt;/font&gt;" style="shape=trapezoid;perimeter=trapezoidPerimeter;whiteSpace=wrap;html=1;fixedSize=1;rounded=1;sketch=0;rotation=90;arcSize=12;size=20.500015258789062;strokeColor=#B85450;" parent="1" vertex="1">
          <mxGeometry x="-1969" y="491" width="69" height="39.5" as="geometry" />
        </mxCell>
        <mxCell id="JEvkDJspSOMSKIL867WB-26" value="&lt;font color=&quot;#9933ff&quot;&gt;EXE_DstReg&lt;/font&gt;" style="edgeStyle=orthogonalEdgeStyle;rounded=0;orthogonalLoop=1;jettySize=auto;html=1;exitX=1;exitY=0.5;exitDx=0;exitDy=0;entryX=-0.055;entryY=0.953;entryDx=0;entryDy=0;entryPerimeter=0;endArrow=classic;endFill=1;fontSize=9;fontColor=#00C200;strokeColor=#9933FF;" parent="1" source="7TlwpzO_HOsOdfMENnGN-11" target="UKt0rCFPghXX4FOB7-Do-4" edge="1">
          <mxGeometry x="0.8061" relative="1" as="geometry">
            <mxPoint as="offset" />
          </mxGeometry>
        </mxCell>
        <mxCell id="7TlwpzO_HOsOdfMENnGN-20" value="" style="endArrow=none;html=1;fontColor=#00C200;strokeColor=#00C200;" parent="1" edge="1">
          <mxGeometry width="50" height="50" relative="1" as="geometry">
            <mxPoint x="-1711" y="995" as="sourcePoint" />
            <mxPoint x="-1711" y="299" as="targetPoint" />
          </mxGeometry>
        </mxCell>
        <mxCell id="7TlwpzO_HOsOdfMENnGN-21" value="&lt;font style=&quot;font-size: 9px;&quot;&gt;IF_ID_Rt&lt;/font&gt;" style="endArrow=classic;html=1;entryX=-0.003;entryY=0.384;entryDx=0;entryDy=0;entryPerimeter=0;fontSize=9;spacingRight=5;spacingTop=1;fontColor=#00C200;strokeColor=#00C200;" parent="1" target="UKt0rCFPghXX4FOB7-Do-9" edge="1">
          <mxGeometry x="0.2497" width="50" height="50" relative="1" as="geometry">
            <mxPoint x="-1711.11" y="577" as="sourcePoint" />
            <mxPoint x="-1569.11" y="559" as="targetPoint" />
            <mxPoint as="offset" />
          </mxGeometry>
        </mxCell>
        <mxCell id="7TlwpzO_HOsOdfMENnGN-23" value="&lt;font style=&quot;font-size: 9px;&quot;&gt;IF_ID_Immediate&lt;/font&gt;" style="endArrow=classic;html=1;entryX=0;entryY=0.5;entryDx=0;entryDy=0;fontColor=#00C200;strokeColor=#00C200;fontSize=9;" parent="1" target="UKt0rCFPghXX4FOB7-Do-13" edge="1">
          <mxGeometry width="50" height="50" relative="1" as="geometry">
            <mxPoint x="-1711.11" y="800" as="sourcePoint" />
            <mxPoint x="-1445.11" y="744" as="targetPoint" />
          </mxGeometry>
        </mxCell>
        <mxCell id="7TlwpzO_HOsOdfMENnGN-25" value="&lt;font style=&quot;font-size: 9px;&quot;&gt;IF_ID_Immediate&lt;/font&gt;" style="endArrow=classic;html=1;entryX=-0.001;entryY=0.483;entryDx=0;entryDy=0;entryPerimeter=0;startSize=4;fontColor=#00C200;strokeColor=#00C200;fontSize=9;" parent="1" target="UKt0rCFPghXX4FOB7-Do-12" edge="1">
          <mxGeometry width="50" height="50" relative="1" as="geometry">
            <mxPoint x="-1701" y="891" as="sourcePoint" />
            <mxPoint x="-1583.11" y="874" as="targetPoint" />
          </mxGeometry>
        </mxCell>
        <mxCell id="VB7SxKn7EFe_iuw59Z2b-5" value="" style="endArrow=classic;html=1;entryX=0.25;entryY=1;entryDx=0;entryDy=0;strokeColor=#B85450;exitX=1;exitY=0.5;exitDx=0;exitDy=0;" parent="1" source="VB7SxKn7EFe_iuw59Z2b-7" target="7TlwpzO_HOsOdfMENnGN-1" edge="1">
          <mxGeometry width="50" height="50" relative="1" as="geometry">
            <mxPoint x="-2001" y="494" as="sourcePoint" />
            <mxPoint x="-1994" y="474" as="targetPoint" />
            <Array as="points" />
          </mxGeometry>
        </mxCell>
        <mxCell id="VB7SxKn7EFe_iuw59Z2b-7" value="&lt;font color=&quot;#b85450&quot;&gt;4&lt;/font&gt;" style="text;html=1;strokeColor=none;fillColor=none;align=center;verticalAlign=middle;whiteSpace=wrap;rounded=0;" parent="1" vertex="1">
          <mxGeometry x="-2020" y="483" width="22" height="20" as="geometry" />
        </mxCell>
        <mxCell id="VB7SxKn7EFe_iuw59Z2b-9" value="" style="endArrow=classic;html=1;strokeColor=#B85450;entryX=0;entryY=0.25;entryDx=0;entryDy=0;horizontal=0;" parent="1" target="UKt0rCFPghXX4FOB7-Do-18" edge="1">
          <mxGeometry x="0.8478" width="50" height="50" relative="1" as="geometry">
            <mxPoint x="-1860" y="510" as="sourcePoint" />
            <mxPoint x="-2078" y="461" as="targetPoint" />
            <Array as="points">
              <mxPoint x="-1860" y="429" />
              <mxPoint x="-2259" y="429" />
              <mxPoint x="-2259" y="601" />
              <mxPoint x="-2259" y="676" />
            </Array>
            <mxPoint as="offset" />
          </mxGeometry>
        </mxCell>
        <mxCell id="JEvkDJspSOMSKIL867WB-20" value="ExtendedImm" style="edgeStyle=orthogonalEdgeStyle;rounded=0;orthogonalLoop=1;jettySize=auto;html=1;exitX=1;exitY=0.5;exitDx=0;exitDy=0;endArrow=classic;endFill=1;fontSize=10;fontColor=#00C200;strokeColor=#00C200;" parent="1" source="VB7SxKn7EFe_iuw59Z2b-13" edge="1">
          <mxGeometry x="0.324" relative="1" as="geometry">
            <mxPoint x="-1278.4284493582586" y="843.8571428571429" as="targetPoint" />
            <mxPoint as="offset" />
          </mxGeometry>
        </mxCell>
        <mxCell id="VB7SxKn7EFe_iuw59Z2b-13" value="&lt;font color=&quot;#00c200&quot; style=&quot;font-size: 12px&quot;&gt;Ext_&amp;nbsp;&lt;br&gt;MUX&lt;/font&gt;" style="rounded=1;whiteSpace=wrap;html=1;arcSize=39;strokeColor=#00C200;" parent="1" vertex="1">
          <mxGeometry x="-1454" y="802.5" width="38" height="83" as="geometry" />
        </mxCell>
        <mxCell id="VB7SxKn7EFe_iuw59Z2b-20" value="ReadData1" style="edgeStyle=orthogonalEdgeStyle;rounded=0;orthogonalLoop=1;jettySize=auto;html=1;strokeColor=#00C200;fontColor=#00C200;entryX=0;entryY=0.212;entryDx=0;entryDy=0;entryPerimeter=0;exitX=1;exitY=0.25;exitDx=0;exitDy=0;" parent="1" source="UKt0rCFPghXX4FOB7-Do-9" target="UKt0rCFPghXX4FOB7-Do-1" edge="1">
          <mxGeometry x="0.21" relative="1" as="geometry">
            <mxPoint x="-1278" y="526" as="targetPoint" />
            <Array as="points">
              <mxPoint x="-1366" y="542" />
              <mxPoint x="-1366" y="543" />
            </Array>
            <mxPoint as="offset" />
            <mxPoint x="-1441" y="550" as="sourcePoint" />
          </mxGeometry>
        </mxCell>
        <mxCell id="VB7SxKn7EFe_iuw59Z2b-21" value="ReadData2" style="edgeStyle=orthogonalEdgeStyle;rounded=0;orthogonalLoop=1;jettySize=auto;html=1;strokeColor=#00C200;fontColor=#00C200;" parent="1" source="UKt0rCFPghXX4FOB7-Do-9" edge="1">
          <mxGeometry x="0.1819" relative="1" as="geometry">
            <mxPoint x="-1279" y="642" as="targetPoint" />
            <Array as="points">
              <mxPoint x="-1333" y="642" />
              <mxPoint x="-1333" y="642" />
            </Array>
            <mxPoint x="-1401" y="701" as="sourcePoint" />
            <mxPoint as="offset" />
          </mxGeometry>
        </mxCell>
        <mxCell id="VB7SxKn7EFe_iuw59Z2b-28" value="" style="endArrow=none;html=1;fontColor=#00C200;strokeColor=#00C200;" parent="1" edge="1">
          <mxGeometry width="50" height="50" relative="1" as="geometry">
            <mxPoint x="-1701" y="891" as="sourcePoint" />
            <mxPoint x="-1701" y="800" as="targetPoint" />
          </mxGeometry>
        </mxCell>
        <mxCell id="VB7SxKn7EFe_iuw59Z2b-30" value="&lt;font color=&quot;#00c200&quot;&gt;IF_ID_Opcode&lt;/font&gt;" style="endArrow=classic;html=1;fontSize=9;fontColor=#9933FF;strokeColor=#00C200;entryX=-0.004;entryY=0.463;entryDx=0;entryDy=0;entryPerimeter=0;" parent="1" target="UKt0rCFPghXX4FOB7-Do-11" edge="1">
          <mxGeometry x="0.3671" width="50" height="50" relative="1" as="geometry">
            <mxPoint x="-1711" y="300" as="sourcePoint" />
            <mxPoint x="-1652" y="241" as="targetPoint" />
            <Array as="points">
              <mxPoint x="-1711" y="204" />
              <mxPoint x="-1654" y="204" />
            </Array>
            <mxPoint as="offset" />
          </mxGeometry>
        </mxCell>
        <mxCell id="VB7SxKn7EFe_iuw59Z2b-34" value="Jump" style="endArrow=none;html=1;fontSize=9;strokeColor=#3399FF;fontColor=#3399FF;endFill=0;" parent="1" edge="1">
          <mxGeometry width="50" height="50" relative="1" as="geometry">
            <mxPoint x="-1490" y="144.43" as="sourcePoint" />
            <mxPoint x="-1420" y="144.43" as="targetPoint" />
          </mxGeometry>
        </mxCell>
        <mxCell id="VB7SxKn7EFe_iuw59Z2b-43" value="Issigned" style="endArrow=none;html=1;fontSize=9;strokeColor=#3399FF;fontColor=#3399FF;exitX=0.5;exitY=1;exitDx=0;exitDy=0;endFill=0;entryX=0.5;entryY=0;entryDx=0;entryDy=0;" parent="1" source="UKt0rCFPghXX4FOB7-Do-11" target="VB7SxKn7EFe_iuw59Z2b-13" edge="1">
          <mxGeometry x="-0.8864" width="50" height="50" relative="1" as="geometry">
            <mxPoint x="-1552" y="339" as="sourcePoint" />
            <mxPoint x="-1495" y="339" as="targetPoint" />
            <Array as="points">
              <mxPoint x="-1530" y="404" />
              <mxPoint x="-1435" y="404" />
              <mxPoint x="-1435" y="543" />
            </Array>
            <mxPoint as="offset" />
          </mxGeometry>
        </mxCell>
        <mxCell id="JEvkDJspSOMSKIL867WB-35" value="ID_EXE_&lt;br&gt;ExtendedImm" style="edgeStyle=orthogonalEdgeStyle;rounded=1;orthogonalLoop=1;jettySize=auto;html=1;entryX=0.5;entryY=1;entryDx=0;entryDy=0;endArrow=classic;endFill=1;strokeColor=#9933FF;fontSize=9;fontColor=#9933FF;exitX=1.071;exitY=0.183;exitDx=0;exitDy=0;exitPerimeter=0;" parent="1" source="UKt0rCFPghXX4FOB7-Do-1" target="JEvkDJspSOMSKIL867WB-33" edge="1">
          <mxGeometry x="-0.5577" relative="1" as="geometry">
            <mxPoint as="offset" />
            <mxPoint x="-1202" y="589" as="sourcePoint" />
          </mxGeometry>
        </mxCell>
        <mxCell id="JEvkDJspSOMSKIL867WB-2" value="&lt;font style=&quot;font-size: 9px;&quot;&gt;IF_ID_Shamt&lt;/font&gt;" style="endArrow=classic;html=1;strokeColor=#00C200;fontColor=#00C200;endFill=1;fontSize=9;" parent="1" edge="1">
          <mxGeometry x="-0.7685" width="50" height="50" relative="1" as="geometry">
            <mxPoint x="-1711" y="942" as="sourcePoint" />
            <mxPoint x="-1279" y="942" as="targetPoint" />
            <mxPoint as="offset" />
          </mxGeometry>
        </mxCell>
        <mxCell id="JEvkDJspSOMSKIL867WB-3" value="&lt;font style=&quot;font-size: 9px&quot;&gt;IF_ID_Func&lt;/font&gt;" style="endArrow=classic;html=1;strokeColor=#00C200;fontColor=#00C200;endFill=1;" parent="1" edge="1">
          <mxGeometry x="-0.7829" width="50" height="50" relative="1" as="geometry">
            <mxPoint x="-1711" y="957" as="sourcePoint" />
            <mxPoint x="-1278" y="957" as="targetPoint" />
            <mxPoint as="offset" />
          </mxGeometry>
        </mxCell>
        <mxCell id="JEvkDJspSOMSKIL867WB-7" value="&lt;font style=&quot;font-size: 9px&quot;&gt;IF_ID_Rd&lt;/font&gt;" style="endArrow=classic;html=1;strokeColor=#00C200;fontColor=#00C200;endFill=1;" parent="1" edge="1">
          <mxGeometry x="-0.7875" width="50" height="50" relative="1" as="geometry">
            <mxPoint x="-1711" y="995" as="sourcePoint" />
            <mxPoint x="-1278" y="995" as="targetPoint" />
            <mxPoint as="offset" />
          </mxGeometry>
        </mxCell>
        <mxCell id="JEvkDJspSOMSKIL867WB-8" value="ID_EXE_Func" style="endArrow=classic;html=1;entryX=0;entryY=0.5;entryDx=0;entryDy=0;entryPerimeter=0;strokeColor=#9933FF;fontColor=#9933FF;fontSize=9;exitX=1.005;exitY=0.492;exitDx=0;exitDy=0;exitPerimeter=0;" parent="1" source="UKt0rCFPghXX4FOB7-Do-1" target="UKt0rCFPghXX4FOB7-Do-15" edge="1">
          <mxGeometry x="-0.6824" width="50" height="50" relative="1" as="geometry">
            <mxPoint x="-1206" y="959" as="sourcePoint" />
            <mxPoint x="-1119" y="797" as="targetPoint" />
            <Array as="points" />
            <mxPoint as="offset" />
          </mxGeometry>
        </mxCell>
        <mxCell id="JEvkDJspSOMSKIL867WB-9" value="ID_EXE_Shamt" style="endArrow=classic;html=1;entryX=1;entryY=0.75;entryDx=0;entryDy=0;strokeColor=#9933FF;fontColor=#9933FF;fontSize=9;exitX=1.005;exitY=0.425;exitDx=0;exitDy=0;exitPerimeter=0;" parent="1" source="UKt0rCFPghXX4FOB7-Do-1" target="UKt0rCFPghXX4FOB7-Do-26" edge="1">
          <mxGeometry x="-0.8392" width="50" height="50" relative="1" as="geometry">
            <mxPoint x="-1220" y="940" as="sourcePoint" />
            <mxPoint x="-951.22" y="989" as="targetPoint" />
            <Array as="points">
              <mxPoint x="-1046" y="783" />
              <mxPoint x="-790" y="783" />
            </Array>
            <mxPoint as="offset" />
          </mxGeometry>
        </mxCell>
        <mxCell id="JEvkDJspSOMSKIL867WB-21" value="IF_ID_PCplus4" style="endArrow=classic;html=1;strokeColor=#00C200;fontSize=9;fontColor=#00C200;entryX=0.125;entryY=0.986;entryDx=0;entryDy=0;entryPerimeter=0;" parent="1" edge="1">
          <mxGeometry x="0.7428" width="50" height="50" relative="1" as="geometry">
            <mxPoint x="-1711" y="427" as="sourcePoint" />
            <mxPoint x="-1277.2109999999998" y="426.96374999999966" as="targetPoint" />
            <mxPoint as="offset" />
          </mxGeometry>
        </mxCell>
        <mxCell id="JEvkDJspSOMSKIL867WB-23" value="ID_EXE_RtReg" style="endArrow=classic;html=1;entryX=0;entryY=0.25;entryDx=0;entryDy=0;strokeColor=#9933FF;fontColor=#9933FF;fontSize=9;" parent="1" target="7TlwpzO_HOsOdfMENnGN-11" edge="1">
          <mxGeometry x="0.1938" width="50" height="50" relative="1" as="geometry">
            <mxPoint x="-1221" y="1359" as="sourcePoint" />
            <mxPoint x="-951.22" y="1026" as="targetPoint" />
            <Array as="points" />
            <mxPoint x="1" as="offset" />
          </mxGeometry>
        </mxCell>
        <mxCell id="JEvkDJspSOMSKIL867WB-24" value="ID_EXE_Rd" style="endArrow=classic;html=1;entryX=0;entryY=0.688;entryDx=0;entryDy=0;strokeColor=#9933FF;fontColor=#9933FF;fontSize=9;exitX=0.99;exitY=0.966;exitDx=0;exitDy=0;exitPerimeter=0;entryPerimeter=0;" parent="1" source="UKt0rCFPghXX4FOB7-Do-1" target="7TlwpzO_HOsOdfMENnGN-11" edge="1">
          <mxGeometry x="0.1428" width="50" height="50" relative="1" as="geometry">
            <mxPoint x="-1221.9909999999998" y="1156.3964999999998" as="sourcePoint" />
            <mxPoint x="-1148.66" y="1156.0000000000002" as="targetPoint" />
            <Array as="points">
              <mxPoint x="-1185" y="1394" />
            </Array>
            <mxPoint as="offset" />
          </mxGeometry>
        </mxCell>
        <mxCell id="JEvkDJspSOMSKIL867WB-27" value="&lt;font&gt;EXE_MEM_DstReg&lt;/font&gt;" style="endArrow=classic;html=1;fontSize=9;strokeColor=#FF9933;fontColor=#FF9933;entryX=-0.044;entryY=0.955;entryDx=0;entryDy=0;entryPerimeter=0;" parent="1" target="UKt0rCFPghXX4FOB7-Do-6" edge="1">
          <mxGeometry x="0.6344" y="1" width="50" height="50" relative="1" as="geometry">
            <mxPoint x="-578" y="1380" as="sourcePoint" />
            <mxPoint x="-267" y="1305" as="targetPoint" />
            <mxPoint as="offset" />
          </mxGeometry>
        </mxCell>
        <mxCell id="CtNVOPYaEB--DCEwSdlD-8" value="EXE_BranchAddress" style="edgeStyle=orthogonalEdgeStyle;rounded=0;orthogonalLoop=1;jettySize=auto;html=1;fontSize=9;fontColor=#9933FF;strokeColor=#9933FF;" parent="1" source="JEvkDJspSOMSKIL867WB-30" edge="1">
          <mxGeometry relative="1" as="geometry">
            <mxPoint x="-635.6800292968751" y="352.75" as="targetPoint" />
          </mxGeometry>
        </mxCell>
        <mxCell id="JEvkDJspSOMSKIL867WB-30" value="&lt;font&gt;ADD&lt;/font&gt;" style="shape=trapezoid;perimeter=trapezoidPerimeter;whiteSpace=wrap;html=1;fixedSize=1;rounded=1;sketch=0;rotation=90;arcSize=12;size=20.500015258789062;fontColor=#9933FF;strokeColor=#9933FF;" parent="1" vertex="1">
          <mxGeometry x="-934" y="333" width="69" height="39.5" as="geometry" />
        </mxCell>
        <mxCell id="JEvkDJspSOMSKIL867WB-66" value="BranchEqualResult" style="edgeStyle=orthogonalEdgeStyle;rounded=0;orthogonalLoop=1;jettySize=auto;html=1;exitX=1;exitY=0.5;exitDx=0;exitDy=0;exitPerimeter=0;endArrow=classic;endFill=1;strokeColor=#FF9933;fontSize=9;fontColor=#FF9933;entryX=0.175;entryY=0.25;entryDx=0;entryDy=0;entryPerimeter=0;horizontal=0;" parent="1" source="JEvkDJspSOMSKIL867WB-31" target="JEvkDJspSOMSKIL867WB-71" edge="1">
          <mxGeometry x="0.351" relative="1" as="geometry">
            <mxPoint x="-450.99994913736964" y="84.83331553141284" as="targetPoint" />
            <Array as="points">
              <mxPoint x="-448" y="427" />
              <mxPoint x="-448" y="54" />
            </Array>
            <mxPoint as="offset" />
          </mxGeometry>
        </mxCell>
        <mxCell id="JEvkDJspSOMSKIL867WB-31" value="Branch&lt;br&gt;Equal" style="shape=or;whiteSpace=wrap;html=1;fontSize=9;fontColor=#FF9933;strokeColor=#FF9933;" parent="1" vertex="1">
          <mxGeometry x="-517" y="403" width="35" height="47" as="geometry" />
        </mxCell>
        <mxCell id="JEvkDJspSOMSKIL867WB-32" value="ID_EXE_PCplus4" style="endArrow=classic;html=1;fontSize=9;fontColor=#9933FF;exitX=0.129;exitY=0.008;exitDx=0;exitDy=0;exitPerimeter=0;entryX=0.25;entryY=1;entryDx=0;entryDy=0;strokeColor=#9933FF;" parent="1" target="JEvkDJspSOMSKIL867WB-30" edge="1">
          <mxGeometry x="-0.7349" width="50" height="50" relative="1" as="geometry">
            <mxPoint x="-1222.443" y="431.06674999999973" as="sourcePoint" />
            <mxPoint x="-1133" y="611" as="targetPoint" />
            <mxPoint as="offset" />
            <Array as="points">
              <mxPoint x="-1051" y="431" />
              <mxPoint x="-1051" y="335" />
            </Array>
          </mxGeometry>
        </mxCell>
        <mxCell id="JEvkDJspSOMSKIL867WB-34" value="BranchAdd" style="edgeStyle=orthogonalEdgeStyle;rounded=1;orthogonalLoop=1;jettySize=auto;html=1;entryX=0.75;entryY=1;entryDx=0;entryDy=0;endArrow=classic;endFill=1;strokeColor=#9933FF;fontSize=9;fontColor=#9933FF;horizontal=1;exitX=0.501;exitY=0.012;exitDx=0;exitDy=0;exitPerimeter=0;" parent="1" source="JEvkDJspSOMSKIL867WB-33" target="JEvkDJspSOMSKIL867WB-30" edge="1">
          <mxGeometry x="0.591" relative="1" as="geometry">
            <mxPoint as="offset" />
            <Array as="points">
              <mxPoint x="-1071" y="370" />
            </Array>
            <mxPoint x="-1071" y="436" as="sourcePoint" />
          </mxGeometry>
        </mxCell>
        <mxCell id="JEvkDJspSOMSKIL867WB-33" value="Shift left 2" style="ellipse;whiteSpace=wrap;html=1;aspect=fixed;strokeColor=#9933FF;fontSize=9;fontColor=#9933FF;" parent="1" vertex="1">
          <mxGeometry x="-1094" y="441" width="45" height="45" as="geometry" />
        </mxCell>
        <mxCell id="JEvkDJspSOMSKIL867WB-38" value="ID_EXE_Rs" style="endArrow=classic;html=1;strokeColor=#9933FF;fontSize=9;fontColor=#9933FF;entryX=0;entryY=0.25;entryDx=0;entryDy=0;" parent="1" target="UKt0rCFPghXX4FOB7-Do-16" edge="1">
          <mxGeometry x="-0.8248" width="50" height="50" relative="1" as="geometry">
            <mxPoint x="-1220" y="553" as="sourcePoint" />
            <mxPoint x="-1084" y="613" as="targetPoint" />
            <Array as="points">
              <mxPoint x="-1062" y="553" />
              <mxPoint x="-984" y="553" />
              <mxPoint x="-984" y="434" />
            </Array>
            <mxPoint as="offset" />
          </mxGeometry>
        </mxCell>
        <mxCell id="JEvkDJspSOMSKIL867WB-40" value="ID_EXE_Rt" style="endArrow=classic;html=1;strokeColor=#9933FF;fontSize=9;fontColor=#9933FF;entryX=0;entryY=0.5;entryDx=0;entryDy=0;" parent="1" target="kzKms_yDveK2XiWAhmSa-9" edge="1">
          <mxGeometry x="-0.6857" width="50" height="50" relative="1" as="geometry">
            <mxPoint x="-1220" y="592" as="sourcePoint" />
            <mxPoint x="-1015" y="590" as="targetPoint" />
            <Array as="points" />
            <mxPoint as="offset" />
          </mxGeometry>
        </mxCell>
        <mxCell id="JEvkDJspSOMSKIL867WB-41" value="ID_EXE_ExtendedImm" style="endArrow=classic;html=1;strokeColor=#9933FF;fontSize=9;fontColor=#9933FF;entryX=0;entryY=0.25;entryDx=0;entryDy=0;exitX=0.99;exitY=0.288;exitDx=0;exitDy=0;exitPerimeter=0;" parent="1" source="UKt0rCFPghXX4FOB7-Do-1" target="kzKms_yDveK2XiWAhmSa-10" edge="1">
          <mxGeometry x="-0.5048" width="50" height="50" relative="1" as="geometry">
            <mxPoint x="-1205" y="713" as="sourcePoint" />
            <mxPoint x="-1012" y="712.9975000000002" as="targetPoint" />
            <Array as="points">
              <mxPoint x="-1128" y="628" />
            </Array>
            <mxPoint as="offset" />
          </mxGeometry>
        </mxCell>
        <mxCell id="JEvkDJspSOMSKIL867WB-47" value="ID_EXE_RsReg" style="endArrow=classic;html=1;entryX=0;entryY=0.25;entryDx=0;entryDy=0;fontSize=9;fontColor=#000066;strokeColor=#000066;exitX=1.024;exitY=0.913;exitDx=0;exitDy=0;exitPerimeter=0;horizontal=1;" parent="1" source="UKt0rCFPghXX4FOB7-Do-1" target="UKt0rCFPghXX4FOB7-Do-27" edge="1">
          <mxGeometry x="-0.0337" width="50" height="50" relative="1" as="geometry">
            <mxPoint x="-1175" y="1306" as="sourcePoint" />
            <mxPoint x="-1148.6599999999999" y="1220.0000000000002" as="targetPoint" />
            <Array as="points">
              <mxPoint x="-1194" y="1335" />
              <mxPoint x="-1194" y="1442" />
              <mxPoint x="-1135" y="1442" />
            </Array>
            <mxPoint as="offset" />
          </mxGeometry>
        </mxCell>
        <mxCell id="JEvkDJspSOMSKIL867WB-63" value="&lt;font style=&quot;font-size: 9px&quot;&gt;EXE_Zero&lt;/font&gt;" style="edgeStyle=orthogonalEdgeStyle;rounded=0;orthogonalLoop=1;jettySize=auto;html=1;exitX=1;exitY=0.5;exitDx=0;exitDy=0;endArrow=classic;endFill=1;strokeColor=#9933FF;fontSize=10;fontColor=#9933FF;entryX=-0.024;entryY=0.183;entryDx=0;entryDy=0;entryPerimeter=0;" parent="1" source="JEvkDJspSOMSKIL867WB-60" target="UKt0rCFPghXX4FOB7-Do-4" edge="1">
          <mxGeometry x="-0.1245" relative="1" as="geometry">
            <mxPoint x="-671.6667073567705" y="650.3333333333335" as="targetPoint" />
            <Array as="points">
              <mxPoint x="-672" y="510" />
            </Array>
            <mxPoint as="offset" />
          </mxGeometry>
        </mxCell>
        <mxCell id="JEvkDJspSOMSKIL867WB-65" value="EXE_MEM_Zero" style="endArrow=classic;html=1;fontSize=9;entryX=0;entryY=0.75;entryDx=0;entryDy=0;entryPerimeter=0;fontColor=#FF9933;strokeColor=#FF9933;horizontal=0;" parent="1" target="JEvkDJspSOMSKIL867WB-31" edge="1">
          <mxGeometry x="-0.3333" width="50" height="50" relative="1" as="geometry">
            <mxPoint x="-578" y="530" as="sourcePoint" />
            <mxPoint x="-664" y="525" as="targetPoint" />
            <Array as="points">
              <mxPoint x="-568" y="530" />
              <mxPoint x="-568" y="438" />
            </Array>
            <mxPoint as="offset" />
          </mxGeometry>
        </mxCell>
        <mxCell id="JEvkDJspSOMSKIL867WB-70" value="BranchnotEqualResult" style="edgeStyle=orthogonalEdgeStyle;rounded=0;orthogonalLoop=1;jettySize=auto;html=1;exitX=1;exitY=0.5;exitDx=0;exitDy=0;exitPerimeter=0;endArrow=classic;endFill=1;strokeColor=#FF9933;fontSize=9;fontColor=#FF9933;entryX=0.175;entryY=0.75;entryDx=0;entryDy=0;entryPerimeter=0;horizontal=0;" parent="1" source="JEvkDJspSOMSKIL867WB-67" target="JEvkDJspSOMSKIL867WB-71" edge="1">
          <mxGeometry x="0.0982" relative="1" as="geometry">
            <mxPoint x="-425" y="43" as="targetPoint" />
            <Array as="points">
              <mxPoint x="-462" y="346" />
              <mxPoint x="-462" y="35" />
            </Array>
            <mxPoint as="offset" />
          </mxGeometry>
        </mxCell>
        <mxCell id="JEvkDJspSOMSKIL867WB-67" value="Branch&lt;br&gt;Not&lt;br&gt;Equal" style="shape=or;whiteSpace=wrap;html=1;fontSize=9;fontColor=#FF9933;strokeColor=#FF9933;" parent="1" vertex="1">
          <mxGeometry x="-517" y="322" width="35" height="47" as="geometry" />
        </mxCell>
        <mxCell id="JEvkDJspSOMSKIL867WB-68" value="" style="ellipse;whiteSpace=wrap;html=1;aspect=fixed;strokeColor=#FF9933;fontSize=9;fontColor=#FF9933;" parent="1" vertex="1">
          <mxGeometry x="-528" y="352" width="11" height="11" as="geometry" />
        </mxCell>
        <mxCell id="JEvkDJspSOMSKIL867WB-69" value="" style="endArrow=classic;html=1;strokeColor=#FF9933;fontSize=9;fontColor=#FF9933;entryX=0;entryY=0.5;entryDx=0;entryDy=0;" parent="1" target="JEvkDJspSOMSKIL867WB-68" edge="1">
          <mxGeometry width="50" height="50" relative="1" as="geometry">
            <mxPoint x="-566" y="440" as="sourcePoint" />
            <mxPoint x="-388" y="384" as="targetPoint" />
            <Array as="points">
              <mxPoint x="-566" y="358" />
            </Array>
          </mxGeometry>
        </mxCell>
        <mxCell id="JEvkDJspSOMSKIL867WB-72" value="PC_Src" style="edgeStyle=orthogonalEdgeStyle;rounded=0;orthogonalLoop=1;jettySize=auto;html=1;exitX=1;exitY=0.5;exitDx=0;exitDy=0;exitPerimeter=0;entryX=0.5;entryY=0;entryDx=0;entryDy=0;endArrow=classic;endFill=1;strokeColor=#FF9933;fontSize=9;fontColor=#FF9933;" parent="1" source="JEvkDJspSOMSKIL867WB-71" target="UKt0rCFPghXX4FOB7-Do-18" edge="1">
          <mxGeometry x="-0.9671" relative="1" as="geometry">
            <mxPoint as="offset" />
          </mxGeometry>
        </mxCell>
        <mxCell id="JEvkDJspSOMSKIL867WB-71" value="&lt;font color=&quot;#ff9933&quot; style=&quot;font-size: 8px;&quot;&gt;Address&lt;br style=&quot;font-size: 8px;&quot;&gt;Or&lt;/font&gt;" style="shape=xor;whiteSpace=wrap;html=1;rotation=-180;strokeColor=#FF9933;horizontal=0;fontSize=8;" parent="1" vertex="1">
          <mxGeometry x="-506" y="26" width="33" height="37" as="geometry" />
        </mxCell>
        <mxCell id="JEvkDJspSOMSKIL867WB-73" value="EXE_MEM_BranchAddress" style="endArrow=classic;html=1;strokeColor=#FF9933;fontSize=9;fontColor=#FF9933;exitX=1.01;exitY=0.079;exitDx=0;exitDy=0;exitPerimeter=0;entryX=0;entryY=0.75;entryDx=0;entryDy=0;rounded=0;" parent="1" source="UKt0rCFPghXX4FOB7-Do-4" target="UKt0rCFPghXX4FOB7-Do-18" edge="1">
          <mxGeometry x="-0.9254" width="50" height="50" relative="1" as="geometry">
            <mxPoint x="-621" y="431" as="sourcePoint" />
            <mxPoint x="-276" y="59" as="targetPoint" />
            <Array as="points">
              <mxPoint x="-382" y="392" />
              <mxPoint x="-382" y="78" />
              <mxPoint x="-2270" y="78" />
              <mxPoint x="-2270" y="731" />
            </Array>
            <mxPoint as="offset" />
          </mxGeometry>
        </mxCell>
        <mxCell id="JEvkDJspSOMSKIL867WB-74" value="EXE_MEM_Result" style="endArrow=classic;html=1;strokeColor=#FF9933;fontSize=9;fontColor=#FF9933;exitX=1.021;exitY=0.242;exitDx=0;exitDy=0;exitPerimeter=0;entryX=0;entryY=0.25;entryDx=0;entryDy=0;" parent="1" source="UKt0rCFPghXX4FOB7-Do-4" target="UKt0rCFPghXX4FOB7-Do-31" edge="1">
          <mxGeometry x="-0.5144" width="50" height="50" relative="1" as="geometry">
            <mxPoint x="-433" y="832" as="sourcePoint" />
            <mxPoint x="-476" y="701" as="targetPoint" />
            <Array as="points">
              <mxPoint x="-483" y="576" />
              <mxPoint x="-483" y="498" />
            </Array>
            <mxPoint as="offset" />
          </mxGeometry>
        </mxCell>
        <mxCell id="JEvkDJspSOMSKIL867WB-75" value="Address" style="text;html=1;strokeColor=none;fillColor=none;align=center;verticalAlign=middle;whiteSpace=wrap;rounded=0;fontSize=9;fontColor=#FF9933;" parent="1" vertex="1">
          <mxGeometry x="-459" y="489" width="40" height="20" as="geometry" />
        </mxCell>
        <mxCell id="JEvkDJspSOMSKIL867WB-76" value="WriteData" style="text;html=1;strokeColor=none;fillColor=none;align=center;verticalAlign=middle;whiteSpace=wrap;rounded=0;fontSize=9;fontColor=#FF9933;" parent="1" vertex="1">
          <mxGeometry x="-459" y="615" width="40" height="20" as="geometry" />
        </mxCell>
        <mxCell id="JEvkDJspSOMSKIL867WB-77" value="EXE_MEM_Rt" style="endArrow=classic;html=1;strokeColor=#FF9933;fontSize=9;fontColor=#FF9933;entryX=-0.001;entryY=0.869;entryDx=0;entryDy=0;entryPerimeter=0;exitX=1.001;exitY=0.301;exitDx=0;exitDy=0;exitPerimeter=0;" parent="1" source="UKt0rCFPghXX4FOB7-Do-4" target="UKt0rCFPghXX4FOB7-Do-31" edge="1">
          <mxGeometry x="-0.3825" width="50" height="50" relative="1" as="geometry">
            <mxPoint x="-557" y="682" as="sourcePoint" />
            <mxPoint x="-507" y="632" as="targetPoint" />
            <Array as="points">
              <mxPoint x="-504" y="643" />
              <mxPoint x="-504" y="623" />
              <mxPoint x="-478" y="623" />
            </Array>
            <mxPoint as="offset" />
          </mxGeometry>
        </mxCell>
        <mxCell id="WTMd-Kf-NOUrpAkrOXLC-1" value="&lt;font style=&quot;font-size: 9px&quot; color=&quot;#9933ff&quot;&gt;ID_EXE_Rt&lt;/font&gt;" style="endArrow=classic;html=1;strokeColor=#9933FF;entryX=-0.054;entryY=0.406;entryDx=0;entryDy=0;entryPerimeter=0;" parent="1" target="UKt0rCFPghXX4FOB7-Do-4" edge="1">
          <mxGeometry x="0.8565" width="50" height="50" relative="1" as="geometry">
            <mxPoint x="-1082" y="592" as="sourcePoint" />
            <mxPoint x="-636" y="712" as="targetPoint" />
            <Array as="points">
              <mxPoint x="-1082" y="762" />
            </Array>
            <mxPoint as="offset" />
          </mxGeometry>
        </mxCell>
        <mxCell id="WTMd-Kf-NOUrpAkrOXLC-3" value="MemWrite" style="text;html=1;strokeColor=none;fillColor=none;align=center;verticalAlign=middle;whiteSpace=wrap;rounded=0;fontSize=9;fontColor=#FF9933;" parent="1" vertex="1">
          <mxGeometry x="-423" y="450" width="40" height="20" as="geometry" />
        </mxCell>
        <mxCell id="WTMd-Kf-NOUrpAkrOXLC-4" value="MemRead" style="text;html=1;strokeColor=none;fillColor=none;align=center;verticalAlign=middle;whiteSpace=wrap;rounded=0;fontSize=9;fontColor=#FF9933;" parent="1" vertex="1">
          <mxGeometry x="-423" y="629.5" width="40" height="20" as="geometry" />
        </mxCell>
        <mxCell id="WTMd-Kf-NOUrpAkrOXLC-7" style="edgeStyle=orthogonalEdgeStyle;rounded=0;orthogonalLoop=1;jettySize=auto;html=1;exitX=0.5;exitY=1;exitDx=0;exitDy=0;strokeColor=#FF9933;fontSize=9;fontColor=#FF9933;" parent="1" source="UKt0rCFPghXX4FOB7-Do-29" target="UKt0rCFPghXX4FOB7-Do-29" edge="1">
          <mxGeometry relative="1" as="geometry" />
        </mxCell>
        <mxCell id="WTMd-Kf-NOUrpAkrOXLC-8" value="MEM_WB_&lt;br&gt;ALUData" style="endArrow=classic;html=1;fontSize=9;entryX=0;entryY=0.5;entryDx=0;entryDy=0;fontColor=#CCCC00;strokeColor=#CCCC00;exitX=1.011;exitY=0.303;exitDx=0;exitDy=0;exitPerimeter=0;" parent="1" source="UKt0rCFPghXX4FOB7-Do-6" target="kzKms_yDveK2XiWAhmSa-19" edge="1">
          <mxGeometry x="-0.1196" width="50" height="50" relative="1" as="geometry">
            <mxPoint x="-203" y="653" as="sourcePoint" />
            <mxPoint x="-155" y="655" as="targetPoint" />
            <Array as="points" />
            <mxPoint as="offset" />
          </mxGeometry>
        </mxCell>
        <mxCell id="WTMd-Kf-NOUrpAkrOXLC-9" value="" style="endArrow=classic;html=1;fontSize=9;fontColor=#CCCC00;entryX=0;entryY=0.5;entryDx=0;entryDy=0;strokeColor=#9933FF;" parent="1" target="UKt0rCFPghXX4FOB7-Do-17" edge="1">
          <mxGeometry width="50" height="50" relative="1" as="geometry">
            <mxPoint x="-1011" y="1597" as="sourcePoint" />
            <mxPoint x="-658" y="1075" as="targetPoint" />
            <Array as="points">
              <mxPoint x="-1011" y="666" />
            </Array>
          </mxGeometry>
        </mxCell>
        <mxCell id="WTMd-Kf-NOUrpAkrOXLC-10" value="" style="endArrow=classic;html=1;fontSize=9;fontColor=#CCCC00;entryX=0;entryY=0.5;entryDx=0;entryDy=0;strokeColor=#9933FF;" parent="1" target="UKt0rCFPghXX4FOB7-Do-16" edge="1">
          <mxGeometry width="50" height="50" relative="1" as="geometry">
            <mxPoint x="-949" y="666" as="sourcePoint" />
            <mxPoint x="-658" y="847" as="targetPoint" />
            <Array as="points">
              <mxPoint x="-949" y="616" />
              <mxPoint x="-949" y="462" />
            </Array>
          </mxGeometry>
        </mxCell>
        <mxCell id="WTMd-Kf-NOUrpAkrOXLC-11" value="" style="endArrow=classic;html=1;strokeColor=#9933FF;fontSize=9;fontColor=#CCCC00;entryX=0;entryY=0.75;entryDx=0;entryDy=0;" parent="1" target="UKt0rCFPghXX4FOB7-Do-17" edge="1">
          <mxGeometry width="50" height="50" relative="1" as="geometry">
            <mxPoint x="-490" y="779" as="sourcePoint" />
            <mxPoint x="-689" y="821" as="targetPoint" />
            <Array as="points">
              <mxPoint x="-490" y="1571" />
              <mxPoint x="-993" y="1571" />
              <mxPoint x="-993" y="693" />
            </Array>
          </mxGeometry>
        </mxCell>
        <mxCell id="WTMd-Kf-NOUrpAkrOXLC-12" value="" style="endArrow=classic;html=1;strokeColor=#9933FF;fontSize=9;fontColor=#CCCC00;entryX=0;entryY=0.75;entryDx=0;entryDy=0;" parent="1" target="UKt0rCFPghXX4FOB7-Do-16" edge="1">
          <mxGeometry width="50" height="50" relative="1" as="geometry">
            <mxPoint x="-927" y="693" as="sourcePoint" />
            <mxPoint x="-862" y="693" as="targetPoint" />
            <Array as="points">
              <mxPoint x="-927" y="643" />
              <mxPoint x="-927" y="489" />
            </Array>
          </mxGeometry>
        </mxCell>
        <mxCell id="kzKms_yDveK2XiWAhmSa-1" value="&lt;font style=&quot;font-size: 9px&quot; color=&quot;#b85450&quot;&gt;0&lt;/font&gt;" style="text;html=1;strokeColor=none;fillColor=none;align=center;verticalAlign=middle;whiteSpace=wrap;rounded=0;" parent="1" vertex="1">
          <mxGeometry x="-2228" y="666" width="15" height="20" as="geometry" />
        </mxCell>
        <mxCell id="kzKms_yDveK2XiWAhmSa-2" value="&lt;font style=&quot;font-size: 9px&quot; color=&quot;#b85450&quot;&gt;1&lt;/font&gt;" style="text;html=1;strokeColor=none;fillColor=none;align=center;verticalAlign=middle;whiteSpace=wrap;rounded=0;" parent="1" vertex="1">
          <mxGeometry x="-2228" y="718.5" width="15" height="20" as="geometry" />
        </mxCell>
        <mxCell id="kzKms_yDveK2XiWAhmSa-3" value="&lt;font style=&quot;font-size: 9px;&quot;&gt;0&lt;/font&gt;" style="text;html=1;strokeColor=none;fillColor=none;align=center;verticalAlign=middle;whiteSpace=wrap;rounded=0;fontSize=9;fontColor=#00C200;" parent="1" vertex="1">
          <mxGeometry x="-1454" y="813" width="15" height="20" as="geometry" />
        </mxCell>
        <mxCell id="kzKms_yDveK2XiWAhmSa-4" value="&lt;font style=&quot;font-size: 9px&quot;&gt;1&lt;/font&gt;" style="text;html=1;strokeColor=none;fillColor=none;align=center;verticalAlign=middle;whiteSpace=wrap;rounded=0;fontSize=9;fontColor=#00C200;" parent="1" vertex="1">
          <mxGeometry x="-1454" y="854" width="15" height="20" as="geometry" />
        </mxCell>
        <mxCell id="kzKms_yDveK2XiWAhmSa-19" value="&lt;font style=&quot;font-size: 9px;&quot;&gt;0&lt;/font&gt;" style="text;html=1;strokeColor=none;fillColor=none;align=center;verticalAlign=middle;whiteSpace=wrap;rounded=0;fontSize=9;fontColor=#CCCC00;" parent="1" vertex="1">
          <mxGeometry x="-124" y="635" width="15" height="20" as="geometry" />
        </mxCell>
        <mxCell id="kzKms_yDveK2XiWAhmSa-20" value="&lt;font style=&quot;font-size: 9px&quot;&gt;1&lt;/font&gt;" style="text;html=1;strokeColor=none;fillColor=none;align=center;verticalAlign=middle;whiteSpace=wrap;rounded=0;fontSize=9;fontColor=#CCCC00;" parent="1" vertex="1">
          <mxGeometry x="-124" y="676" width="15" height="20" as="geometry" />
        </mxCell>
        <mxCell id="5nQT4AZVTanA-vaWzoJL-1" value="" style="endArrow=classic;html=1;fontColor=#00C200;strokeColor=#00C200;" parent="1" edge="1">
          <mxGeometry width="50" height="50" relative="1" as="geometry">
            <mxPoint x="-1700" y="529" as="sourcePoint" />
            <mxPoint x="-1280" y="743" as="targetPoint" />
            <Array as="points">
              <mxPoint x="-1700" y="743" />
            </Array>
          </mxGeometry>
        </mxCell>
        <mxCell id="5nQT4AZVTanA-vaWzoJL-2" value="" style="endArrow=classic;html=1;fontColor=#00C200;strokeColor=#00C200;" parent="1" edge="1">
          <mxGeometry width="50" height="50" relative="1" as="geometry">
            <mxPoint x="-1692" y="577.5" as="sourcePoint" />
            <mxPoint x="-1280" y="754" as="targetPoint" />
            <Array as="points">
              <mxPoint x="-1692" y="754" />
            </Array>
          </mxGeometry>
        </mxCell>
        <mxCell id="i_DloLI33KycDSHxBHz_-1" value="&lt;font style=&quot;font-size: 18px;&quot;&gt;IF/ID&lt;/font&gt;" style="rounded=0;whiteSpace=wrap;html=1;horizontal=0;fontStyle=1;fontSize=18;" parent="1" vertex="1">
          <mxGeometry x="-1787" y="303" width="56" height="1130" as="geometry" />
        </mxCell>
        <mxCell id="UKt0rCFPghXX4FOB7-Do-1" value="&lt;font style=&quot;font-size: 18px;&quot;&gt;ID/EXE&lt;/font&gt;" style="rounded=0;whiteSpace=wrap;html=1;horizontal=0;fontStyle=1;fontSize=18;" parent="1" vertex="1">
          <mxGeometry x="-1277.99" y="303" width="56" height="1130" as="geometry" />
        </mxCell>
        <mxCell id="gS0UG-fzsXVAPo_zug0t-1" value="" style="endArrow=classic;html=1;strokeColor=#006600;entryX=-0.001;entryY=0.147;entryDx=0;entryDy=0;entryPerimeter=0;" parent="1" target="VB7SxKn7EFe_iuw59Z2b-10" edge="1">
          <mxGeometry width="50" height="50" relative="1" as="geometry">
            <mxPoint x="-1731" y="1074" as="sourcePoint" />
            <mxPoint x="-1645" y="1082" as="targetPoint" />
          </mxGeometry>
        </mxCell>
        <mxCell id="gS0UG-fzsXVAPo_zug0t-2" value="&lt;span style=&quot;font-size: 9px&quot;&gt;&lt;font color=&quot;#006600&quot;&gt;IF_ID_Ft&lt;br&gt;&lt;/font&gt;&lt;/span&gt;" style="edgeLabel;html=1;align=center;verticalAlign=middle;resizable=0;points=[];" parent="gS0UG-fzsXVAPo_zug0t-1" vertex="1" connectable="0">
          <mxGeometry x="0.4209" y="1" relative="1" as="geometry">
            <mxPoint x="-11.71" y="1.0699999999999994" as="offset" />
          </mxGeometry>
        </mxCell>
        <mxCell id="gS0UG-fzsXVAPo_zug0t-3" value="" style="endArrow=classic;html=1;strokeColor=#006600;rounded=0;entryX=-0.002;entryY=0.272;entryDx=0;entryDy=0;entryPerimeter=0;" parent="1" target="VB7SxKn7EFe_iuw59Z2b-10" edge="1">
          <mxGeometry width="50" height="50" relative="1" as="geometry">
            <mxPoint x="-1730" y="1106" as="sourcePoint" />
            <mxPoint x="-1637" y="1106" as="targetPoint" />
            <Array as="points" />
          </mxGeometry>
        </mxCell>
        <mxCell id="gS0UG-fzsXVAPo_zug0t-4" value="&lt;span style=&quot;font-size: 9px&quot;&gt;&lt;font color=&quot;#006600&quot;&gt;IF_ID_Fs&lt;/font&gt;&lt;/span&gt;" style="edgeLabel;html=1;align=center;verticalAlign=middle;resizable=0;points=[];" parent="gS0UG-fzsXVAPo_zug0t-3" vertex="1" connectable="0">
          <mxGeometry x="0.2591" relative="1" as="geometry">
            <mxPoint x="-2.6700000000000004" y="0.22000000000000114" as="offset" />
          </mxGeometry>
        </mxCell>
        <mxCell id="gS0UG-fzsXVAPo_zug0t-5" value="" style="endArrow=classic;html=1;strokeColor=#999900;rounded=0;entryX=0.003;entryY=0.894;entryDx=0;entryDy=0;entryPerimeter=0;" parent="1" target="VB7SxKn7EFe_iuw59Z2b-10" edge="1">
          <mxGeometry width="50" height="50" relative="1" as="geometry">
            <mxPoint x="-74" y="1585" as="sourcePoint" />
            <mxPoint x="-1639" y="1268" as="targetPoint" />
            <Array as="points">
              <mxPoint x="-74" y="1623" />
              <mxPoint x="-882" y="1623" />
              <mxPoint x="-1694" y="1623" />
              <mxPoint x="-1694" y="1268" />
            </Array>
          </mxGeometry>
        </mxCell>
        <mxCell id="gS0UG-fzsXVAPo_zug0t-6" value="" style="endArrow=classic;html=1;strokeColor=#999900;rounded=0;entryX=0.004;entryY=0.793;entryDx=0;entryDy=0;entryPerimeter=0;" parent="1" target="VB7SxKn7EFe_iuw59Z2b-10" edge="1">
          <mxGeometry width="50" height="50" relative="1" as="geometry">
            <mxPoint x="-205" y="1354" as="sourcePoint" />
            <mxPoint x="-1635" y="1241" as="targetPoint" />
            <Array as="points">
              <mxPoint x="-85" y="1354" />
              <mxPoint x="-85" y="1614" />
              <mxPoint x="-1703" y="1614" />
              <mxPoint x="-1703" y="1241" />
            </Array>
          </mxGeometry>
        </mxCell>
        <mxCell id="CtNVOPYaEB--DCEwSdlD-1" value="&lt;font color=&quot;#006600&quot;&gt;FPReadData1&lt;/font&gt;" style="endArrow=classic;html=1;strokeColor=#006600;" parent="1" edge="1">
          <mxGeometry width="50" height="50" relative="1" as="geometry">
            <mxPoint x="-1454" y="1131.5" as="sourcePoint" />
            <mxPoint x="-1279" y="1132" as="targetPoint" />
          </mxGeometry>
        </mxCell>
        <mxCell id="CtNVOPYaEB--DCEwSdlD-2" value="&lt;font color=&quot;#006600&quot;&gt;FPReadData2&lt;/font&gt;" style="endArrow=classic;html=1;strokeColor=#006600;exitX=1;exitY=0.5;exitDx=0;exitDy=0;entryX=-0.041;entryY=0.799;entryDx=0;entryDy=0;entryPerimeter=0;" parent="1" source="gS0UG-fzsXVAPo_zug0t-13" target="UKt0rCFPghXX4FOB7-Do-1" edge="1">
          <mxGeometry width="50" height="50" relative="1" as="geometry">
            <mxPoint x="-1387" y="1217" as="sourcePoint" />
            <mxPoint x="-1337" y="1167" as="targetPoint" />
          </mxGeometry>
        </mxCell>
        <mxCell id="CtNVOPYaEB--DCEwSdlD-3" value="ALUSrc" style="endArrow=none;html=1;strokeColor=#3399FF;fontColor=#3399FF;fontSize=9;spacing=0;spacingLeft=5;spacingBottom=8;exitX=0.687;exitY=0.965;exitDx=0;exitDy=0;exitPerimeter=0;" parent="1" source="UKt0rCFPghXX4FOB7-Do-11" edge="1">
          <mxGeometry x="-0.7829" y="-4" width="50" height="50" relative="1" as="geometry">
            <mxPoint x="-1511" y="297" as="sourcePoint" />
            <mxPoint x="-1278" y="297" as="targetPoint" />
            <mxPoint as="offset" />
          </mxGeometry>
        </mxCell>
        <mxCell id="CtNVOPYaEB--DCEwSdlD-4" value="ID_EXE_ALUSrc" style="endArrow=none;html=1;entryX=0.5;entryY=0;entryDx=0;entryDy=0;strokeColor=#3399FF;fontColor=#3399FF;fontSize=9;spacing=0;spacingLeft=5;spacingBottom=6;" parent="1" target="JEvkDJspSOMSKIL867WB-37" edge="1">
          <mxGeometry x="-0.8501" y="-2" width="50" height="50" relative="1" as="geometry">
            <mxPoint x="-1222" y="297" as="sourcePoint" />
            <mxPoint x="-1001.8620000000001" y="295.872" as="targetPoint" />
            <mxPoint as="offset" />
            <Array as="points">
              <mxPoint x="-993" y="300" />
            </Array>
          </mxGeometry>
        </mxCell>
        <mxCell id="CtNVOPYaEB--DCEwSdlD-5" value="ALUop" style="endArrow=none;html=1;exitX=0.794;exitY=0.902;exitDx=0;exitDy=0;exitPerimeter=0;strokeColor=#3399FF;fontColor=#3399FF;fontSize=9;spacing=0;spacingLeft=5;spacingBottom=8;" parent="1" source="UKt0rCFPghXX4FOB7-Do-11" edge="1">
          <mxGeometry x="-0.7829" y="-4" width="50" height="50" relative="1" as="geometry">
            <mxPoint x="-1490" y="276" as="sourcePoint" />
            <mxPoint x="-1278" y="285.79" as="targetPoint" />
            <mxPoint as="offset" />
          </mxGeometry>
        </mxCell>
        <mxCell id="CtNVOPYaEB--DCEwSdlD-6" value="ID_EXE_ALUop" style="endArrow=none;html=1;exitX=1;exitY=0.5;exitDx=0;exitDy=0;strokeColor=#3399FF;fontColor=#3399FF;fontSize=9;spacing=0;spacingLeft=5;spacingBottom=3;entryX=0.5;entryY=0;entryDx=0;entryDy=0;entryPerimeter=0;" parent="1" source="VB7SxKn7EFe_iuw59Z2b-44" target="UKt0rCFPghXX4FOB7-Do-15" edge="1">
          <mxGeometry x="-0.9121" width="50" height="50" relative="1" as="geometry">
            <mxPoint x="-1212" y="276" as="sourcePoint" />
            <mxPoint x="-1143" y="287" as="targetPoint" />
            <mxPoint as="offset" />
            <Array as="points">
              <mxPoint x="-1100" y="287" />
              <mxPoint x="-1100" y="807" />
              <mxPoint x="-935" y="807" />
            </Array>
          </mxGeometry>
        </mxCell>
        <mxCell id="CtNVOPYaEB--DCEwSdlD-11" value="" style="group" parent="1" vertex="1" connectable="0">
          <mxGeometry x="-1012" y="568.25" width="38" height="86.75" as="geometry" />
        </mxCell>
        <mxCell id="JEvkDJspSOMSKIL867WB-37" value="&lt;font style=&quot;font-size: 10px&quot;&gt;Op2Src&lt;br&gt;_MUX&lt;/font&gt;" style="rounded=1;whiteSpace=wrap;html=1;arcSize=39;fontColor=#9933FF;strokeColor=#9933FF;" parent="CtNVOPYaEB--DCEwSdlD-11" vertex="1">
          <mxGeometry width="38" height="86.75" as="geometry" />
        </mxCell>
        <mxCell id="kzKms_yDveK2XiWAhmSa-9" value="&lt;font style=&quot;font-size: 9px;&quot;&gt;0&lt;/font&gt;" style="text;html=1;strokeColor=none;fillColor=none;align=center;verticalAlign=middle;whiteSpace=wrap;rounded=0;fontSize=9;fontColor=#9933FF;" parent="CtNVOPYaEB--DCEwSdlD-11" vertex="1">
          <mxGeometry y="13.75" width="15" height="20" as="geometry" />
        </mxCell>
        <mxCell id="kzKms_yDveK2XiWAhmSa-10" value="&lt;font style=&quot;font-size: 9px&quot;&gt;1&lt;/font&gt;" style="text;html=1;strokeColor=none;fillColor=none;align=center;verticalAlign=middle;whiteSpace=wrap;rounded=0;fontSize=9;fontColor=#9933FF;" parent="CtNVOPYaEB--DCEwSdlD-11" vertex="1">
          <mxGeometry y="54.75" width="15" height="20" as="geometry" />
        </mxCell>
        <mxCell id="CtNVOPYaEB--DCEwSdlD-9" value="" style="group" parent="1" vertex="1" connectable="0">
          <mxGeometry x="-903" y="407" width="38" height="109" as="geometry" />
        </mxCell>
        <mxCell id="UKt0rCFPghXX4FOB7-Do-16" value="&lt;font style=&quot;font-size: 10px&quot;&gt;ForOp1&lt;br&gt;_MUX&lt;/font&gt;" style="rounded=1;whiteSpace=wrap;html=1;arcSize=39;fontColor=#9933FF;strokeColor=#9933FF;" parent="CtNVOPYaEB--DCEwSdlD-9" vertex="1">
          <mxGeometry width="38" height="109" as="geometry" />
        </mxCell>
        <mxCell id="kzKms_yDveK2XiWAhmSa-11" value="&lt;font style=&quot;font-size: 9px;&quot;&gt;0&lt;/font&gt;" style="text;html=1;strokeColor=none;fillColor=none;align=center;verticalAlign=middle;whiteSpace=wrap;rounded=0;fontSize=9;fontColor=#9933FF;" parent="CtNVOPYaEB--DCEwSdlD-9" vertex="1">
          <mxGeometry y="18" width="15" height="20" as="geometry" />
        </mxCell>
        <mxCell id="kzKms_yDveK2XiWAhmSa-12" value="&lt;font style=&quot;font-size: 9px&quot;&gt;2&lt;/font&gt;&lt;span style=&quot;color: rgba(0 , 0 , 0 , 0) ; font-family: monospace ; font-size: 0px&quot;&gt;%3CmxGraphModel%3E%3Croot%3E%3CmxCell%20id%3D%220%22%2F%3E%3CmxCell%20id%3D%221%22%20parent%3D%220%22%2F%3E%3CmxCell%20id%3D%222%22%20value%3D%22%26lt%3Bfont%20style%3D%26quot%3Bfont-size%3A%209px%3B%26quot%3B%26gt%3B0%26lt%3B%2Ffont%26gt%3B%22%20style%3D%22text%3Bhtml%3D1%3BstrokeColor%3Dnone%3BfillColor%3Dnone%3Balign%3Dcenter%3BverticalAlign%3Dmiddle%3BwhiteSpace%3Dwrap%3Brounded%3D0%3BfontSize%3D9%3BfontColor%3D%239933FF%3B%22%20vertex%3D%221%22%20parent%3D%221%22%3E%3CmxGeometry%20x%3D%22-1012%22%20y%3D%22659%22%20width%3D%2215%22%20height%3D%2220%22%20as%3D%22geometry%22%2F%3E%3C%2FmxCell%3E%3CmxCell%20id%3D%223%22%20value%3D%22%26lt%3Bfont%20style%3D%26quot%3Bfont-size%3A%209px%26quot%3B%26gt%3B1%26lt%3B%2Ffont%26gt%3B%22%20style%3D%22text%3Bhtml%3D1%3BstrokeColor%3Dnone%3BfillColor%3Dnone%3Balign%3Dcenter%3BverticalAlign%3Dmiddle%3BwhiteSpace%3Dwrap%3Brounded%3D0%3BfontSize%3D9%3BfontColor%3D%239933FF%3B%22%20vertex%3D%221%22%20parent%3D%221%22%3E%3CmxGeometry%20x%3D%22-1012%22%20y%3D%22700%22%20width%3D%2215%22%20height%3D%2220%22%20as%3D%22geometry%22%2F%3E%3C%2FmxCell%3E%3C%2Froot%3E%3C%2FmxGraphModel%3E&lt;/span&gt;" style="text;html=1;strokeColor=none;fillColor=none;align=center;verticalAlign=middle;whiteSpace=wrap;rounded=0;fontSize=9;fontColor=#9933FF;" parent="CtNVOPYaEB--DCEwSdlD-9" vertex="1">
          <mxGeometry y="71" width="15" height="20" as="geometry" />
        </mxCell>
        <mxCell id="kzKms_yDveK2XiWAhmSa-13" value="1" style="text;html=1;strokeColor=none;fillColor=none;align=center;verticalAlign=middle;whiteSpace=wrap;rounded=0;fontSize=9;fontColor=#9933FF;" parent="CtNVOPYaEB--DCEwSdlD-9" vertex="1">
          <mxGeometry y="44.5" width="15" height="20" as="geometry" />
        </mxCell>
        <mxCell id="CtNVOPYaEB--DCEwSdlD-13" value="" style="group" parent="1" vertex="1" connectable="0">
          <mxGeometry x="-903" y="611" width="38" height="109" as="geometry" />
        </mxCell>
        <mxCell id="UKt0rCFPghXX4FOB7-Do-17" value="&lt;font style=&quot;font-size: 10px&quot;&gt;ForOp2&lt;br&gt;_MUX&lt;/font&gt;" style="rounded=1;whiteSpace=wrap;html=1;arcSize=39;fontColor=#9933FF;strokeColor=#9933FF;" parent="CtNVOPYaEB--DCEwSdlD-13" vertex="1">
          <mxGeometry width="38" height="109" as="geometry" />
        </mxCell>
        <mxCell id="kzKms_yDveK2XiWAhmSa-14" value="&lt;font style=&quot;font-size: 9px;&quot;&gt;0&lt;/font&gt;" style="text;html=1;strokeColor=none;fillColor=none;align=center;verticalAlign=middle;whiteSpace=wrap;rounded=0;fontSize=9;fontColor=#9933FF;" parent="CtNVOPYaEB--DCEwSdlD-13" vertex="1">
          <mxGeometry y="21" width="15" height="20" as="geometry" />
        </mxCell>
        <mxCell id="kzKms_yDveK2XiWAhmSa-15" value="&lt;font style=&quot;font-size: 9px&quot;&gt;2&lt;/font&gt;&lt;span style=&quot;color: rgba(0 , 0 , 0 , 0) ; font-family: monospace ; font-size: 0px&quot;&gt;%3CmxGraphModel%3E%3Croot%3E%3CmxCell%20id%3D%220%22%2F%3E%3CmxCell%20id%3D%221%22%20parent%3D%220%22%2F%3E%3CmxCell%20id%3D%222%22%20value%3D%22%26lt%3Bfont%20style%3D%26quot%3Bfont-size%3A%209px%3B%26quot%3B%26gt%3B0%26lt%3B%2Ffont%26gt%3B%22%20style%3D%22text%3Bhtml%3D1%3BstrokeColor%3Dnone%3BfillColor%3Dnone%3Balign%3Dcenter%3BverticalAlign%3Dmiddle%3BwhiteSpace%3Dwrap%3Brounded%3D0%3BfontSize%3D9%3BfontColor%3D%239933FF%3B%22%20vertex%3D%221%22%20parent%3D%221%22%3E%3CmxGeometry%20x%3D%22-1012%22%20y%3D%22659%22%20width%3D%2215%22%20height%3D%2220%22%20as%3D%22geometry%22%2F%3E%3C%2FmxCell%3E%3CmxCell%20id%3D%223%22%20value%3D%22%26lt%3Bfont%20style%3D%26quot%3Bfont-size%3A%209px%26quot%3B%26gt%3B1%26lt%3B%2Ffont%26gt%3B%22%20style%3D%22text%3Bhtml%3D1%3BstrokeColor%3Dnone%3BfillColor%3Dnone%3Balign%3Dcenter%3BverticalAlign%3Dmiddle%3BwhiteSpace%3Dwrap%3Brounded%3D0%3BfontSize%3D9%3BfontColor%3D%239933FF%3B%22%20vertex%3D%221%22%20parent%3D%221%22%3E%3CmxGeometry%20x%3D%22-1012%22%20y%3D%22700%22%20width%3D%2215%22%20height%3D%2220%22%20as%3D%22geometry%22%2F%3E%3C%2FmxCell%3E%3C%2Froot%3E%3C%2FmxGraphModel%3E&lt;/span&gt;" style="text;html=1;strokeColor=none;fillColor=none;align=center;verticalAlign=middle;whiteSpace=wrap;rounded=0;fontSize=9;fontColor=#9933FF;" parent="CtNVOPYaEB--DCEwSdlD-13" vertex="1">
          <mxGeometry y="74" width="15" height="20" as="geometry" />
        </mxCell>
        <mxCell id="kzKms_yDveK2XiWAhmSa-16" value="1" style="text;html=1;strokeColor=none;fillColor=none;align=center;verticalAlign=middle;whiteSpace=wrap;rounded=0;fontSize=9;fontColor=#9933FF;" parent="CtNVOPYaEB--DCEwSdlD-13" vertex="1">
          <mxGeometry y="47.5" width="15" height="20" as="geometry" />
        </mxCell>
        <mxCell id="JEvkDJspSOMSKIL867WB-42" value="Op2Src" style="edgeStyle=orthogonalEdgeStyle;rounded=0;orthogonalLoop=1;jettySize=auto;html=1;exitX=1;exitY=0.5;exitDx=0;exitDy=0;entryX=0;entryY=0.25;entryDx=0;entryDy=0;endArrow=classic;endFill=1;strokeColor=#9933FF;fontSize=9;fontColor=#9933FF;horizontal=1;" parent="1" source="JEvkDJspSOMSKIL867WB-37" target="UKt0rCFPghXX4FOB7-Do-17" edge="1">
          <mxGeometry x="-0.5905" relative="1" as="geometry">
            <Array as="points">
              <mxPoint x="-921" y="612" />
              <mxPoint x="-921" y="638" />
            </Array>
            <mxPoint as="offset" />
          </mxGeometry>
        </mxCell>
        <mxCell id="CtNVOPYaEB--DCEwSdlD-14" value="" style="group" parent="1" vertex="1" connectable="0">
          <mxGeometry x="-820" y="455" width="106" height="210" as="geometry" />
        </mxCell>
        <mxCell id="UKt0rCFPghXX4FOB7-Do-26" value="ALU" style="shape=trapezoid;perimeter=trapezoidPerimeter;whiteSpace=wrap;html=1;fixedSize=1;rounded=1;sketch=0;rotation=90;arcSize=12;size=24.517262425915874;fontColor=#9933FF;strokeColor=#9933FF;" parent="CtNVOPYaEB--DCEwSdlD-14" vertex="1">
          <mxGeometry x="-51" y="54" width="210" height="102" as="geometry" />
        </mxCell>
        <mxCell id="JEvkDJspSOMSKIL867WB-14" value="Op1" style="text;html=1;strokeColor=none;fillColor=none;align=center;verticalAlign=middle;whiteSpace=wrap;rounded=0;fontSize=10;fontColor=#9933FF;" parent="CtNVOPYaEB--DCEwSdlD-14" vertex="1">
          <mxGeometry x="3" y="45.25" width="40" height="20" as="geometry" />
        </mxCell>
        <mxCell id="JEvkDJspSOMSKIL867WB-15" value="Op2" style="text;html=1;strokeColor=none;fillColor=none;align=center;verticalAlign=middle;whiteSpace=wrap;rounded=0;fontSize=10;fontColor=#9933FF;" parent="CtNVOPYaEB--DCEwSdlD-14" vertex="1">
          <mxGeometry y="149.25" width="40" height="20" as="geometry" />
        </mxCell>
        <mxCell id="JEvkDJspSOMSKIL867WB-16" value="Shamt" style="text;html=1;strokeColor=none;fillColor=none;align=center;verticalAlign=middle;whiteSpace=wrap;rounded=0;fontSize=10;fontColor=#9933FF;" parent="CtNVOPYaEB--DCEwSdlD-14" vertex="1">
          <mxGeometry x="10" y="182.75" width="40" height="20" as="geometry" />
        </mxCell>
        <mxCell id="JEvkDJspSOMSKIL867WB-17" value="Operation" style="text;html=1;strokeColor=none;fillColor=none;align=center;verticalAlign=middle;whiteSpace=wrap;rounded=0;fontSize=10;fontColor=#9933FF;" parent="CtNVOPYaEB--DCEwSdlD-14" vertex="1">
          <mxGeometry x="54" y="172.25" width="40" height="20" as="geometry" />
        </mxCell>
        <mxCell id="JEvkDJspSOMSKIL867WB-60" value="&lt;font style=&quot;font-size: 10px;&quot; color=&quot;#9933ff&quot;&gt;Zero&lt;/font&gt;" style="text;html=1;strokeColor=none;fillColor=none;align=center;verticalAlign=middle;whiteSpace=wrap;rounded=0;fontSize=10;" parent="CtNVOPYaEB--DCEwSdlD-14" vertex="1">
          <mxGeometry x="66" y="45.25" width="40" height="20" as="geometry" />
        </mxCell>
        <mxCell id="JEvkDJspSOMSKIL867WB-62" value="&lt;font style=&quot;font-size: 10px&quot; color=&quot;#9933ff&quot;&gt;Overflow&lt;/font&gt;" style="text;html=1;strokeColor=none;fillColor=none;align=center;verticalAlign=middle;whiteSpace=wrap;rounded=0;fontSize=10;" parent="CtNVOPYaEB--DCEwSdlD-14" vertex="1">
          <mxGeometry x="61" y="129.25" width="40" height="20" as="geometry" />
        </mxCell>
        <mxCell id="CtNVOPYaEB--DCEwSdlD-15" value="" style="group" parent="1" vertex="1" connectable="0">
          <mxGeometry x="-1092" y="1339" width="38" height="80" as="geometry" />
        </mxCell>
        <mxCell id="7TlwpzO_HOsOdfMENnGN-11" value="&lt;font style=&quot;font-size: 10px&quot;&gt;DstReg&lt;br&gt;_MUX&lt;/font&gt;" style="rounded=1;whiteSpace=wrap;html=1;arcSize=39;fontColor=#9933FF;strokeColor=#9933FF;" parent="CtNVOPYaEB--DCEwSdlD-15" vertex="1">
          <mxGeometry width="38" height="80" as="geometry" />
        </mxCell>
        <mxCell id="kzKms_yDveK2XiWAhmSa-17" value="&lt;font style=&quot;font-size: 9px;&quot;&gt;0&lt;/font&gt;" style="text;html=1;strokeColor=none;fillColor=none;align=center;verticalAlign=middle;whiteSpace=wrap;rounded=0;fontSize=9;fontColor=#9933FF;" parent="CtNVOPYaEB--DCEwSdlD-15" vertex="1">
          <mxGeometry y="12" width="15" height="20" as="geometry" />
        </mxCell>
        <mxCell id="kzKms_yDveK2XiWAhmSa-18" value="&lt;font style=&quot;font-size: 9px&quot;&gt;1&lt;/font&gt;" style="text;html=1;strokeColor=none;fillColor=none;align=center;verticalAlign=middle;whiteSpace=wrap;rounded=0;fontSize=9;fontColor=#9933FF;" parent="CtNVOPYaEB--DCEwSdlD-15" vertex="1">
          <mxGeometry y="49" width="15" height="20" as="geometry" />
        </mxCell>
        <mxCell id="CtNVOPYaEB--DCEwSdlD-16" value="" style="group" parent="1" vertex="1" connectable="0">
          <mxGeometry x="-1624" y="1036" width="170" height="259" as="geometry" />
        </mxCell>
        <mxCell id="VB7SxKn7EFe_iuw59Z2b-10" value="&lt;font style=&quot;font-size: 16px&quot; color=&quot;#006600&quot;&gt;Floating point&lt;br&gt;Register File&lt;/font&gt;" style="rounded=0;whiteSpace=wrap;html=1;fontColor=#00C200;strokeColor=#006600;" parent="CtNVOPYaEB--DCEwSdlD-16" vertex="1">
          <mxGeometry width="170" height="259" as="geometry" />
        </mxCell>
        <mxCell id="gS0UG-fzsXVAPo_zug0t-8" value="&lt;span style=&quot;font-family: &amp;#34;helvetica&amp;#34; ; font-size: 10px ; font-style: normal ; font-weight: 400 ; letter-spacing: normal ; text-align: center ; text-indent: 0px ; text-transform: none ; word-spacing: 0px ; background-color: rgb(248 , 249 , 250) ; display: inline ; float: none&quot;&gt;&lt;font color=&quot;#006600&quot;&gt;WriteData&lt;/font&gt;&lt;/span&gt;" style="text;whiteSpace=wrap;html=1;" parent="CtNVOPYaEB--DCEwSdlD-16" vertex="1">
          <mxGeometry x="5" y="219" width="64" height="29" as="geometry" />
        </mxCell>
        <mxCell id="gS0UG-fzsXVAPo_zug0t-9" value="&lt;span style=&quot;font-family: &amp;#34;helvetica&amp;#34; ; font-size: 10px ; font-style: normal ; font-weight: 400 ; letter-spacing: normal ; text-align: center ; text-indent: 0px ; text-transform: none ; word-spacing: 0px ; background-color: rgb(248 , 249 , 250) ; display: inline ; float: none&quot;&gt;&lt;font color=&quot;#006600&quot;&gt;WriteRegister&lt;/font&gt;&lt;/span&gt;" style="text;whiteSpace=wrap;html=1;" parent="CtNVOPYaEB--DCEwSdlD-16" vertex="1">
          <mxGeometry x="5" y="190" width="80" height="29" as="geometry" />
        </mxCell>
        <mxCell id="gS0UG-fzsXVAPo_zug0t-10" value="&lt;span style=&quot;font-family: &amp;#34;helvetica&amp;#34; ; font-size: 10px ; font-style: normal ; font-weight: 400 ; letter-spacing: normal ; text-align: center ; text-indent: 0px ; text-transform: none ; word-spacing: 0px ; background-color: rgb(248 , 249 , 250) ; display: inline ; float: none&quot;&gt;&lt;font color=&quot;#006600&quot;&gt;FPReadRegister1&lt;/font&gt;&lt;/span&gt;" style="text;whiteSpace=wrap;html=1;" parent="CtNVOPYaEB--DCEwSdlD-16" vertex="1">
          <mxGeometry x="5" y="21" width="90" height="29" as="geometry" />
        </mxCell>
        <mxCell id="gS0UG-fzsXVAPo_zug0t-11" value="&lt;div style=&quot;text-align: center&quot;&gt;&lt;span style=&quot;font-size: 10px&quot;&gt;&lt;font face=&quot;helvetica&quot; color=&quot;#006600&quot;&gt;FPReadRegister2&lt;/font&gt;&lt;/span&gt;&lt;/div&gt;" style="text;whiteSpace=wrap;html=1;" parent="CtNVOPYaEB--DCEwSdlD-16" vertex="1">
          <mxGeometry x="5" y="56" width="90" height="29" as="geometry" />
        </mxCell>
        <mxCell id="gS0UG-fzsXVAPo_zug0t-12" value="&lt;div style=&quot;text-align: center&quot;&gt;&lt;font color=&quot;#006600&quot; face=&quot;helvetica&quot;&gt;&lt;span style=&quot;font-size: 10px&quot;&gt;FPReadData1&lt;/span&gt;&lt;/font&gt;&lt;br&gt;&lt;/div&gt;" style="text;whiteSpace=wrap;html=1;" parent="CtNVOPYaEB--DCEwSdlD-16" vertex="1">
          <mxGeometry x="98" y="80" width="72" height="29" as="geometry" />
        </mxCell>
        <mxCell id="gS0UG-fzsXVAPo_zug0t-13" value="&lt;div style=&quot;text-align: center&quot;&gt;&lt;font color=&quot;#006600&quot; face=&quot;helvetica&quot;&gt;&lt;span style=&quot;font-size: 10px&quot;&gt;FPReadData2&lt;/span&gt;&lt;/font&gt;&lt;/div&gt;" style="text;whiteSpace=wrap;html=1;" parent="CtNVOPYaEB--DCEwSdlD-16" vertex="1">
          <mxGeometry x="98" y="155" width="72" height="29" as="geometry" />
        </mxCell>
        <mxCell id="CtNVOPYaEB--DCEwSdlD-18" value="ID_EXE_RegDst" style="endArrow=none;html=1;exitX=1;exitY=0.5;exitDx=0;exitDy=0;strokeColor=#3399FF;fontColor=#3399FF;fontSize=9;spacing=0;spacingLeft=6;spacingBottom=3;entryX=0.5;entryY=0;entryDx=0;entryDy=0;" parent="1" target="7TlwpzO_HOsOdfMENnGN-11" edge="1">
          <mxGeometry x="-0.9393" width="50" height="50" relative="1" as="geometry">
            <mxPoint x="-1222" y="276" as="sourcePoint" />
            <mxPoint x="-1060" y="932" as="targetPoint" />
            <mxPoint as="offset" />
            <Array as="points">
              <mxPoint x="-1119" y="276" />
              <mxPoint x="-1119" y="1298" />
              <mxPoint x="-1073" y="1298" />
            </Array>
          </mxGeometry>
        </mxCell>
        <mxCell id="CtNVOPYaEB--DCEwSdlD-19" value="BranchnotEqual" style="endArrow=none;html=1;exitX=0.868;exitY=0.839;exitDx=0;exitDy=0;strokeColor=#3399FF;fontColor=#3399FF;fontSize=9;spacing=0;spacingLeft=5;spacingBottom=6;exitPerimeter=0;" parent="1" edge="1">
          <mxGeometry x="-0.6415" y="-2" width="50" height="50" relative="1" as="geometry">
            <mxPoint x="-1479" y="256.5039999999999" as="sourcePoint" />
            <mxPoint x="-1278" y="259" as="targetPoint" />
            <mxPoint as="offset" />
          </mxGeometry>
        </mxCell>
        <mxCell id="CtNVOPYaEB--DCEwSdlD-20" value="ID_EXE_BranchnotEqual" style="endArrow=none;html=1;exitX=0.868;exitY=0.839;exitDx=0;exitDy=0;strokeColor=#3399FF;fontColor=#3399FF;fontSize=9;spacing=0;spacingLeft=3;spacingBottom=3;exitPerimeter=0;entryX=0;entryY=0.75;entryDx=0;entryDy=0;" parent="1" target="VB7SxKn7EFe_iuw59Z2b-49" edge="1">
          <mxGeometry x="-0.8186" width="50" height="50" relative="1" as="geometry">
            <mxPoint x="-1221.99" y="259.0039999999999" as="sourcePoint" />
            <mxPoint x="-758" y="268" as="targetPoint" />
            <mxPoint as="offset" />
            <Array as="points">
              <mxPoint x="-982" y="259" />
              <mxPoint x="-982" y="293" />
            </Array>
          </mxGeometry>
        </mxCell>
        <mxCell id="CtNVOPYaEB--DCEwSdlD-23" value="BranchEqual" style="endArrow=none;html=1;exitX=0.868;exitY=0.839;exitDx=0;exitDy=0;strokeColor=#3399FF;fontColor=#3399FF;fontSize=9;spacing=0;spacingLeft=5;spacingBottom=6;exitPerimeter=0;" parent="1" edge="1">
          <mxGeometry x="-0.6415" y="-2" width="50" height="50" relative="1" as="geometry">
            <mxPoint x="-1475" y="245.5039999999999" as="sourcePoint" />
            <mxPoint x="-1278" y="248" as="targetPoint" />
            <mxPoint as="offset" />
          </mxGeometry>
        </mxCell>
        <mxCell id="CtNVOPYaEB--DCEwSdlD-24" value="ID_EXE_BranchEqual" style="endArrow=none;html=1;exitX=0.868;exitY=0.839;exitDx=0;exitDy=0;strokeColor=#3399FF;fontColor=#3399FF;fontSize=9;spacing=0;spacingLeft=3;spacingBottom=3;exitPerimeter=0;" parent="1" edge="1">
          <mxGeometry x="-0.8417" width="50" height="50" relative="1" as="geometry">
            <mxPoint x="-1222" y="248.0039999999999" as="sourcePoint" />
            <mxPoint x="-635" y="276" as="targetPoint" />
            <mxPoint as="offset" />
            <Array as="points">
              <mxPoint x="-976" y="248" />
              <mxPoint x="-976" y="276" />
            </Array>
          </mxGeometry>
        </mxCell>
        <mxCell id="CtNVOPYaEB--DCEwSdlD-25" value="&lt;span style=&quot;font-size: 5px;&quot;&gt;EXE_MEM_&lt;br style=&quot;font-size: 5px;&quot;&gt;BranchEqual&lt;/span&gt;" style="endArrow=none;html=1;strokeColor=#3399FF;fontColor=#3399FF;fontSize=5;spacing=0;spacingLeft=3;spacingBottom=3;entryX=0;entryY=0.25;entryDx=0;entryDy=0;entryPerimeter=0;horizontal=1;" parent="1" target="JEvkDJspSOMSKIL867WB-31" edge="1">
          <mxGeometry x="0.7917" width="50" height="50" relative="1" as="geometry">
            <mxPoint x="-578.9899999999998" y="285" as="sourcePoint" />
            <mxPoint x="-517" y="324.7499999999999" as="targetPoint" />
            <mxPoint as="offset" />
            <Array as="points">
              <mxPoint x="-569" y="285" />
              <mxPoint x="-569" y="415" />
            </Array>
          </mxGeometry>
        </mxCell>
        <mxCell id="CtNVOPYaEB--DCEwSdlD-26" value="MemRead" style="endArrow=none;html=1;exitX=0.868;exitY=0.839;exitDx=0;exitDy=0;strokeColor=#3399FF;fontColor=#3399FF;fontSize=9;spacing=0;spacingLeft=5;spacingBottom=6;exitPerimeter=0;" parent="1" edge="1">
          <mxGeometry x="-0.6415" y="-2" width="50" height="50" relative="1" as="geometry">
            <mxPoint x="-1472" y="233.0039999999999" as="sourcePoint" />
            <mxPoint x="-1278" y="235.5" as="targetPoint" />
            <mxPoint as="offset" />
          </mxGeometry>
        </mxCell>
        <mxCell id="CtNVOPYaEB--DCEwSdlD-27" value="ID_EXE_MemRead" style="endArrow=none;html=1;exitX=0.868;exitY=0.839;exitDx=0;exitDy=0;strokeColor=#3399FF;fontColor=#3399FF;fontSize=9;spacing=0;spacingLeft=3;spacingBottom=3;exitPerimeter=0;entryX=0;entryY=0.333;entryDx=0;entryDy=0;entryPerimeter=0;" parent="1" edge="1" target="VB7SxKn7EFe_iuw59Z2b-49">
          <mxGeometry x="-0.8582" width="50" height="50" relative="1" as="geometry">
            <mxPoint x="-1222" y="236.0039999999999" as="sourcePoint" />
            <mxPoint x="-635.0099999999998" y="270" as="targetPoint" />
            <mxPoint as="offset" />
            <Array as="points">
              <mxPoint x="-969" y="236" />
              <mxPoint x="-969" y="268" />
            </Array>
          </mxGeometry>
        </mxCell>
        <mxCell id="CtNVOPYaEB--DCEwSdlD-28" value="EXE_MEM_MemRead" style="endArrow=none;html=1;fontSize=8;fontColor=#3399FF;strokeColor=#3399FF;exitX=0.991;exitY=0.413;exitDx=0;exitDy=0;exitPerimeter=0;entryX=0.5;entryY=1;entryDx=0;entryDy=0;spacingLeft=25;" parent="1" source="VB7SxKn7EFe_iuw59Z2b-49" target="UKt0rCFPghXX4FOB7-Do-31" edge="1">
          <mxGeometry x="-0.8695" y="1" width="50" height="50" relative="1" as="geometry">
            <mxPoint x="-618" y="424" as="sourcePoint" />
            <mxPoint x="-361" y="278" as="targetPoint" />
            <Array as="points">
              <mxPoint x="-301" y="278" />
              <mxPoint x="-301" y="691" />
              <mxPoint x="-403" y="691" />
            </Array>
            <mxPoint as="offset" />
          </mxGeometry>
        </mxCell>
        <mxCell id="CtNVOPYaEB--DCEwSdlD-29" value="MemWrite" style="endArrow=none;html=1;exitX=0.868;exitY=0.839;exitDx=0;exitDy=0;strokeColor=#3399FF;fontColor=#3399FF;fontSize=9;spacing=0;spacingLeft=5;spacingBottom=6;exitPerimeter=0;" parent="1" edge="1">
          <mxGeometry x="-0.6415" y="-2" width="50" height="50" relative="1" as="geometry">
            <mxPoint x="-1470" y="222.0039999999999" as="sourcePoint" />
            <mxPoint x="-1278" y="224.5" as="targetPoint" />
            <mxPoint as="offset" />
          </mxGeometry>
        </mxCell>
        <mxCell id="CtNVOPYaEB--DCEwSdlD-30" value="ID_EXE_MemWrite" style="endArrow=none;html=1;exitX=0.868;exitY=0.839;exitDx=0;exitDy=0;strokeColor=#3399FF;fontColor=#3399FF;fontSize=9;spacing=0;spacingLeft=3;spacingBottom=3;exitPerimeter=0;entryX=0;entryY=0.75;entryDx=0;entryDy=0;" parent="1" edge="1">
          <mxGeometry x="-0.8582" width="50" height="50" relative="1" as="geometry">
            <mxPoint x="-1222" y="225.0039999999999" as="sourcePoint" />
            <mxPoint x="-635.0099999999998" y="259" as="targetPoint" />
            <mxPoint as="offset" />
            <Array as="points">
              <mxPoint x="-965" y="225" />
              <mxPoint x="-965" y="259" />
            </Array>
          </mxGeometry>
        </mxCell>
        <mxCell id="CtNVOPYaEB--DCEwSdlD-31" value="EXE_MEM_MemWrite" style="endArrow=none;html=1;fontSize=8;fontColor=#3399FF;strokeColor=#3399FF;exitX=0.991;exitY=0.413;exitDx=0;exitDy=0;exitPerimeter=0;entryX=0.5;entryY=0;entryDx=0;entryDy=0;spacingLeft=26;" parent="1" target="UKt0rCFPghXX4FOB7-Do-31" edge="1">
          <mxGeometry x="-0.7064" y="1" width="50" height="50" relative="1" as="geometry">
            <mxPoint x="-578.2539999999999" y="262" as="sourcePoint" />
            <mxPoint x="-308" y="673" as="targetPoint" />
            <Array as="points">
              <mxPoint x="-403" y="267" />
            </Array>
            <mxPoint as="offset" />
          </mxGeometry>
        </mxCell>
        <mxCell id="CtNVOPYaEB--DCEwSdlD-32" value="MemtoReg" style="endArrow=none;html=1;exitX=0.868;exitY=0.839;exitDx=0;exitDy=0;strokeColor=#3399FF;fontColor=#3399FF;fontSize=9;spacing=0;spacingLeft=5;spacingBottom=6;exitPerimeter=0;" parent="1" edge="1">
          <mxGeometry x="-0.6415" y="-2" width="50" height="50" relative="1" as="geometry">
            <mxPoint x="-1472" y="187.0039999999999" as="sourcePoint" />
            <mxPoint x="-1278" y="189.5" as="targetPoint" />
            <mxPoint as="offset" />
          </mxGeometry>
        </mxCell>
        <mxCell id="CtNVOPYaEB--DCEwSdlD-33" value="ID_EXE_MemtoReg" style="endArrow=none;html=1;exitX=0.868;exitY=0.839;exitDx=0;exitDy=0;strokeColor=#3399FF;fontColor=#3399FF;fontSize=9;spacing=0;spacingLeft=3;spacingBottom=3;exitPerimeter=0;entryX=0;entryY=0.5;entryDx=0;entryDy=0;" parent="1" edge="1" target="VB7SxKn7EFe_iuw59Z2b-48">
          <mxGeometry x="-0.8516" width="50" height="50" relative="1" as="geometry">
            <mxPoint x="-1221.99" y="183.0039999999999" as="sourcePoint" />
            <mxPoint x="-665.01" y="202" as="targetPoint" />
            <mxPoint as="offset" />
            <Array as="points">
              <mxPoint x="-955" y="183" />
              <mxPoint x="-955" y="227" />
            </Array>
          </mxGeometry>
        </mxCell>
        <mxCell id="CtNVOPYaEB--DCEwSdlD-34" value="EXE_MEM_MemtoReg" style="endArrow=none;html=1;fontSize=8;fontColor=#3399FF;strokeColor=#3399FF;exitX=1;exitY=0.5;exitDx=0;exitDy=0;spacingBottom=5;spacingLeft=-4;" parent="1" source="VB7SxKn7EFe_iuw59Z2b-48" edge="1">
          <mxGeometry x="-0.5928" y="-2" width="50" height="50" relative="1" as="geometry">
            <mxPoint x="-578.9939999999999" y="226" as="sourcePoint" />
            <mxPoint x="-261" y="266" as="targetPoint" />
            <Array as="points">
              <mxPoint x="-426" y="231" />
              <mxPoint x="-426" y="257" />
            </Array>
            <mxPoint as="offset" />
          </mxGeometry>
        </mxCell>
        <mxCell id="CtNVOPYaEB--DCEwSdlD-36" value="MEM_WB_MemtoReg" style="endArrow=none;html=1;fontSize=8;fontColor=#3399FF;strokeColor=#3399FF;exitX=0.991;exitY=0.413;exitDx=0;exitDy=0;exitPerimeter=0;entryX=0.5;entryY=0;entryDx=0;entryDy=0;spacingLeft=-3;" parent="1" target="UKt0rCFPghXX4FOB7-Do-29" edge="1">
          <mxGeometry x="-0.7554" width="50" height="50" relative="1" as="geometry">
            <mxPoint x="-205.0039999999999" y="266" as="sourcePoint" />
            <mxPoint x="-85" y="474" as="targetPoint" />
            <Array as="points">
              <mxPoint x="-105" y="266" />
            </Array>
            <mxPoint as="offset" />
          </mxGeometry>
        </mxCell>
        <mxCell id="CtNVOPYaEB--DCEwSdlD-37" value="RegWrite" style="endArrow=none;html=1;exitX=0.868;exitY=0.839;exitDx=0;exitDy=0;strokeColor=#3399FF;fontColor=#3399FF;fontSize=9;spacing=0;spacingLeft=5;spacingBottom=6;exitPerimeter=0;entryX=-0.008;entryY=0.4;entryDx=0;entryDy=0;entryPerimeter=0;" parent="1" target="VB7SxKn7EFe_iuw59Z2b-46" edge="1">
          <mxGeometry x="-0.6415" y="-2" width="50" height="50" relative="1" as="geometry">
            <mxPoint x="-1479" y="167.0039999999999" as="sourcePoint" />
            <mxPoint x="-1285" y="169.5" as="targetPoint" />
            <mxPoint as="offset" />
          </mxGeometry>
        </mxCell>
        <mxCell id="CtNVOPYaEB--DCEwSdlD-38" value="ID_EXE_RegWrite" style="endArrow=none;html=1;exitX=0.868;exitY=0.839;exitDx=0;exitDy=0;strokeColor=#3399FF;fontColor=#3399FF;fontSize=9;spacing=0;spacingLeft=3;spacingBottom=3;exitPerimeter=0;entryX=0;entryY=0.25;entryDx=0;entryDy=0;" parent="1" edge="1" target="VB7SxKn7EFe_iuw59Z2b-48">
          <mxGeometry x="-0.8648" width="50" height="50" relative="1" as="geometry">
            <mxPoint x="-1221.98" y="171.0039999999999" as="sourcePoint" />
            <mxPoint x="-723" y="190" as="targetPoint" />
            <mxPoint as="offset" />
            <Array as="points">
              <mxPoint x="-948" y="171" />
              <mxPoint x="-948" y="212" />
            </Array>
          </mxGeometry>
        </mxCell>
        <mxCell id="CtNVOPYaEB--DCEwSdlD-40" value="MEM_WB_RegWrite" style="endArrow=none;html=1;strokeColor=#3399FF;fontSize=8;fontColor=#3399FF;entryX=0.5;entryY=0;entryDx=0;entryDy=0;" parent="1" target="UKt0rCFPghXX4FOB7-Do-9" edge="1">
          <mxGeometry x="-0.9543" width="50" height="50" relative="1" as="geometry">
            <mxPoint x="-205" y="253" as="sourcePoint" />
            <mxPoint x="-1544" y="461" as="targetPoint" />
            <Array as="points">
              <mxPoint x="-109" y="253" />
              <mxPoint x="-109" y="103" />
              <mxPoint x="-1624" y="93" />
              <mxPoint x="-1624" y="389" />
              <mxPoint x="-1539" y="389" />
            </Array>
            <mxPoint as="offset" />
          </mxGeometry>
        </mxCell>
        <mxCell id="WTMd-Kf-NOUrpAkrOXLC-2" value="MEM_Result" style="endArrow=classic;html=1;exitX=1;exitY=0.5;exitDx=0;exitDy=0;entryX=-0.057;entryY=0.219;entryDx=0;entryDy=0;entryPerimeter=0;strokeColor=#FF9933;fontColor=#FF9933;fontSize=9;" parent="1" source="UKt0rCFPghXX4FOB7-Do-31" target="UKt0rCFPghXX4FOB7-Do-6" edge="1">
          <mxGeometry width="50" height="50" relative="1" as="geometry">
            <mxPoint x="-663" y="630" as="sourcePoint" />
            <mxPoint x="-613" y="580" as="targetPoint" />
          </mxGeometry>
        </mxCell>
        <mxCell id="CtNVOPYaEB--DCEwSdlD-41" value="EXE_MEM_Result" style="endArrow=classic;html=1;fontSize=8;entryX=0.014;entryY=0.421;entryDx=0;entryDy=0;entryPerimeter=0;fontColor=#FF9933;strokeColor=#FF9933;" parent="1" target="UKt0rCFPghXX4FOB7-Do-6" edge="1">
          <mxGeometry x="0.767" width="50" height="50" relative="1" as="geometry">
            <mxPoint x="-573" y="576" as="sourcePoint" />
            <mxPoint x="-522" y="679" as="targetPoint" />
            <Array as="points">
              <mxPoint x="-573" y="779" />
            </Array>
            <mxPoint as="offset" />
          </mxGeometry>
        </mxCell>
        <mxCell id="UISVZXv5EUuJPZ1agZMV-9" value="" style="group" parent="1" vertex="1" connectable="0">
          <mxGeometry x="-819" y="1042" width="106" height="210" as="geometry" />
        </mxCell>
        <mxCell id="UISVZXv5EUuJPZ1agZMV-10" value="&lt;font color=&quot;#cc0066&quot;&gt;FP_ALU&lt;/font&gt;" style="shape=trapezoid;perimeter=trapezoidPerimeter;whiteSpace=wrap;html=1;fixedSize=1;rounded=1;sketch=0;rotation=90;arcSize=12;size=24.517262425915874;fontColor=#9933FF;strokeColor=#CC0066;" parent="UISVZXv5EUuJPZ1agZMV-9" vertex="1">
          <mxGeometry x="-51" y="54" width="210" height="102" as="geometry" />
        </mxCell>
        <mxCell id="UISVZXv5EUuJPZ1agZMV-11" value="&lt;font color=&quot;#cc0066&quot;&gt;Op1&lt;/font&gt;" style="text;html=1;strokeColor=none;fillColor=none;align=center;verticalAlign=middle;whiteSpace=wrap;rounded=0;fontSize=10;fontColor=#9933FF;" parent="UISVZXv5EUuJPZ1agZMV-9" vertex="1">
          <mxGeometry x="3" y="45.25" width="40" height="20" as="geometry" />
        </mxCell>
        <mxCell id="UISVZXv5EUuJPZ1agZMV-12" value="&lt;font color=&quot;#cc0066&quot;&gt;Op2&lt;/font&gt;" style="text;html=1;strokeColor=none;fillColor=none;align=center;verticalAlign=middle;whiteSpace=wrap;rounded=0;fontSize=10;fontColor=#9933FF;" parent="UISVZXv5EUuJPZ1agZMV-9" vertex="1">
          <mxGeometry y="149.25" width="40" height="20" as="geometry" />
        </mxCell>
        <mxCell id="UISVZXv5EUuJPZ1agZMV-14" value="&lt;font color=&quot;#cc0066&quot;&gt;Operation&lt;/font&gt;" style="text;html=1;strokeColor=none;fillColor=none;align=center;verticalAlign=middle;whiteSpace=wrap;rounded=0;fontSize=10;fontColor=#9933FF;" parent="UISVZXv5EUuJPZ1agZMV-9" vertex="1">
          <mxGeometry x="33" y="13" width="40" height="20" as="geometry" />
        </mxCell>
        <mxCell id="UISVZXv5EUuJPZ1agZMV-16" value="&lt;font style=&quot;font-size: 10px&quot; color=&quot;#cc0066&quot;&gt;Out&lt;br&gt;&lt;/font&gt;" style="text;html=1;strokeColor=none;fillColor=none;align=center;verticalAlign=middle;whiteSpace=wrap;rounded=0;fontSize=10;" parent="UISVZXv5EUuJPZ1agZMV-9" vertex="1">
          <mxGeometry x="73" y="95" width="29" height="20" as="geometry" />
        </mxCell>
        <mxCell id="UISVZXv5EUuJPZ1agZMV-17" value="&lt;font style=&quot;font-size: 15px&quot; color=&quot;#cc0066&quot;&gt;FP_ALU&lt;br&gt;control&lt;/font&gt;" style="strokeWidth=2;html=1;shape=mxgraph.flowchart.start_2;whiteSpace=wrap;fontColor=#9933FF;strokeColor=#CC0066;" parent="1" vertex="1">
          <mxGeometry x="-977" y="932" width="83" height="74" as="geometry" />
        </mxCell>
        <mxCell id="UISVZXv5EUuJPZ1agZMV-18" value="" style="endArrow=classic;html=1;exitX=1;exitY=0.591;exitDx=0;exitDy=0;exitPerimeter=0;strokeColor=#CC0066;" parent="1" source="UKt0rCFPghXX4FOB7-Do-1" edge="1">
          <mxGeometry width="50" height="50" relative="1" as="geometry">
            <mxPoint x="-1148" y="971" as="sourcePoint" />
            <mxPoint x="-977" y="971" as="targetPoint" />
          </mxGeometry>
        </mxCell>
        <mxCell id="UISVZXv5EUuJPZ1agZMV-19" value="" style="endArrow=classic;html=1;strokeColor=#CC0066;exitX=1;exitY=0.5;exitDx=0;exitDy=0;exitPerimeter=0;rounded=0;entryX=0;entryY=0.5;entryDx=0;entryDy=0;" parent="1" source="UISVZXv5EUuJPZ1agZMV-17" target="UISVZXv5EUuJPZ1agZMV-10" edge="1">
          <mxGeometry width="50" height="50" relative="1" as="geometry">
            <mxPoint x="-777" y="986" as="sourcePoint" />
            <mxPoint x="-651" y="1008" as="targetPoint" />
            <Array as="points">
              <mxPoint x="-765" y="969" />
            </Array>
          </mxGeometry>
        </mxCell>
        <mxCell id="UISVZXv5EUuJPZ1agZMV-20" value="" style="endArrow=classic;html=1;strokeColor=#CC0066;rounded=0;exitX=0.5;exitY=0;exitDx=0;exitDy=0;entryX=-0.013;entryY=0.747;entryDx=0;entryDy=0;entryPerimeter=0;" parent="1" source="UISVZXv5EUuJPZ1agZMV-10" target="UKt0rCFPghXX4FOB7-Do-4" edge="1">
          <mxGeometry width="50" height="50" relative="1" as="geometry">
            <mxPoint x="-683" y="1048" as="sourcePoint" />
            <mxPoint x="-636" y="1147" as="targetPoint" />
            <Array as="points" />
          </mxGeometry>
        </mxCell>
        <mxCell id="ToduFV8g3K8M5US-xybr-1" value="" style="endArrow=classic;html=1;fontColor=#0000CC;strokeColor=#0000CC;entryX=1;entryY=0.5;entryDx=0;entryDy=0;" parent="1" target="UKt0rCFPghXX4FOB7-Do-28" edge="1">
          <mxGeometry width="50" height="50" relative="1" as="geometry">
            <mxPoint x="-1695" y="529" as="sourcePoint" />
            <mxPoint x="-1695" y="1452" as="targetPoint" />
            <Array as="points">
              <mxPoint x="-1695" y="165" />
            </Array>
          </mxGeometry>
        </mxCell>
        <mxCell id="ToduFV8g3K8M5US-xybr-2" value="&lt;font style=&quot;font-size: 11px;&quot;&gt;IF_ID_Rs&lt;/font&gt;" style="edgeLabel;html=1;align=center;verticalAlign=middle;resizable=0;points=[];fontColor=#0000CC;fontSize=11;" parent="ToduFV8g3K8M5US-xybr-1" vertex="1" connectable="0">
          <mxGeometry x="0.8425" y="1" relative="1" as="geometry">
            <mxPoint as="offset" />
          </mxGeometry>
        </mxCell>
        <mxCell id="ToduFV8g3K8M5US-xybr-3" value="" style="endArrow=classic;html=1;fontColor=#0000CC;strokeColor=#0000CC;entryX=0.881;entryY=0.868;entryDx=0;entryDy=0;entryPerimeter=0;" parent="1" target="UKt0rCFPghXX4FOB7-Do-28" edge="1">
          <mxGeometry width="50" height="50" relative="1" as="geometry">
            <mxPoint x="-1706" y="577" as="sourcePoint" />
            <mxPoint x="-1812" y="1257" as="targetPoint" />
            <Array as="points">
              <mxPoint x="-1706" y="194" />
            </Array>
          </mxGeometry>
        </mxCell>
        <mxCell id="ToduFV8g3K8M5US-xybr-4" value="&lt;font style=&quot;font-size: 11px&quot;&gt;IF_ID_Rt&lt;/font&gt;" style="edgeLabel;html=1;align=center;verticalAlign=middle;resizable=0;points=[];fontColor=#0000CC;fontSize=11;" parent="ToduFV8g3K8M5US-xybr-3" vertex="1" connectable="0">
          <mxGeometry x="0.8425" y="1" relative="1" as="geometry">
            <mxPoint as="offset" />
          </mxGeometry>
        </mxCell>
        <mxCell id="ToduFV8g3K8M5US-xybr-7" value="Stall" style="endArrow=classic;html=1;strokeColor=#0000CC;fontSize=11;fontColor=#0000CC;entryX=0.063;entryY=0.73;entryDx=0;entryDy=0;exitX=0.375;exitY=1;exitDx=0;exitDy=0;entryPerimeter=0;" parent="1" source="UKt0rCFPghXX4FOB7-Do-28" target="UKt0rCFPghXX4FOB7-Do-11" edge="1">
          <mxGeometry x="-0.7866" width="50" height="50" relative="1" as="geometry">
            <mxPoint x="-1895" y="125" as="sourcePoint" />
            <mxPoint x="-1845" y="75" as="targetPoint" />
            <Array as="points">
              <mxPoint x="-1909" y="281" />
              <mxPoint x="-1643" y="281" />
              <mxPoint x="-1643" y="251" />
            </Array>
            <mxPoint as="offset" />
          </mxGeometry>
        </mxCell>
        <mxCell id="ToduFV8g3K8M5US-xybr-8" value="" style="endArrow=classic;html=1;strokeColor=#0000CC;fontSize=11;fontColor=#0000CC;exitX=0.5;exitY=1;exitDx=0;exitDy=0;entryX=0.5;entryY=0;entryDx=0;entryDy=0;" parent="1" source="UKt0rCFPghXX4FOB7-Do-28" target="i_DloLI33KycDSHxBHz_-1" edge="1">
          <mxGeometry width="50" height="50" relative="1" as="geometry">
            <mxPoint x="-1886" y="301" as="sourcePoint" />
            <mxPoint x="-1836" y="251" as="targetPoint" />
            <Array as="points">
              <mxPoint x="-1894" y="244" />
              <mxPoint x="-1759" y="244" />
            </Array>
          </mxGeometry>
        </mxCell>
        <mxCell id="ToduFV8g3K8M5US-xybr-9" value="IF_ID_Write" style="edgeLabel;html=1;align=center;verticalAlign=middle;resizable=0;points=[];fontSize=11;fontColor=#0000CC;" parent="ToduFV8g3K8M5US-xybr-8" vertex="1" connectable="0">
          <mxGeometry x="0.1502" y="-1" relative="1" as="geometry">
            <mxPoint x="-59.17" y="-1.5" as="offset" />
          </mxGeometry>
        </mxCell>
        <mxCell id="ToduFV8g3K8M5US-xybr-12" value="PC_Write" style="endArrow=classic;html=1;strokeColor=#0000CC;fontSize=11;fontColor=#0000CC;exitX=0;exitY=0.5;exitDx=0;exitDy=0;entryX=0.5;entryY=0;entryDx=0;entryDy=0;" parent="1" source="UKt0rCFPghXX4FOB7-Do-28" target="UKt0rCFPghXX4FOB7-Do-2" edge="1">
          <mxGeometry x="-0.8253" width="50" height="50" relative="1" as="geometry">
            <mxPoint x="-1965" y="531" as="sourcePoint" />
            <mxPoint x="-1915" y="481" as="targetPoint" />
            <Array as="points">
              <mxPoint x="-2112" y="165" />
            </Array>
            <mxPoint as="offset" />
          </mxGeometry>
        </mxCell>
        <mxCell id="ToduFV8g3K8M5US-xybr-14" value="" style="edgeStyle=orthogonalEdgeStyle;rounded=0;orthogonalLoop=1;jettySize=auto;html=1;entryX=0.75;entryY=1;entryDx=0;entryDy=0;strokeColor=#B85450;fontColor=#B85450;" parent="1" target="7TlwpzO_HOsOdfMENnGN-1" edge="1">
          <mxGeometry relative="1" as="geometry">
            <Array as="points">
              <mxPoint x="-2050" y="706" />
              <mxPoint x="-2050" y="528" />
            </Array>
            <mxPoint x="-2084" y="705.66" as="sourcePoint" />
            <mxPoint x="-2008" y="705.66" as="targetPoint" />
          </mxGeometry>
        </mxCell>
      </root>
    </mxGraphModel>
  </diagram>
</mxfile>
